<?xml version="1.0" standalone="no"?>
<!DOCTYPE svg PUBLIC "-//W3C//DTD SVG 20010904//EN"
 "http://www.w3.org/TR/2001/REC-SVG-20010904/DTD/svg10.dtd">
<svg version="1.0" xmlns="http://www.w3.org/2000/svg"
 width="1329.000000pt" height="870.000000pt" viewBox="0 0 1329.000000 870.000000"
 preserveAspectRatio="xMidYMid meet">
<metadata>
</metadata>
<g transform="translate(0.000000,870.000000) scale(0.100000,-0.100000)"
fill="#000000" stroke="none">
<path d="M4407 7859 c-27 -4 -57 -15 -66 -23 -10 -9 -22 -16 -27 -16 -5 0 -29
-14 -54 -30 -25 -17 -54 -36 -64 -43 -10 -6 -31 -21 -45 -32 -24 -19 -49 -37
-107 -75 -12 -8 -80 -62 -151 -120 -71 -58 -142 -114 -158 -125 -16 -11 -39
-30 -52 -42 -13 -13 -26 -23 -30 -23 -3 0 -26 -17 -52 -38 -45 -38 -149 -110
-246 -170 -27 -17 -55 -35 -61 -40 -5 -5 -20 -15 -33 -21 -12 -7 -31 -20 -41
-29 -9 -9 -30 -26 -44 -37 -41 -31 -100 -87 -123 -118 l-22 -28 -12 43 c-7 24
-16 48 -19 53 -4 6 -10 26 -14 46 -11 61 -126 169 -181 169 -18 0 -38 7 -45
15 -7 8 -27 17 -46 21 -27 5 -38 14 -49 40 -8 19 -26 40 -42 46 -15 7 -37 23
-50 36 -12 12 -31 22 -41 22 -11 0 -25 7 -32 15 -7 8 -18 15 -24 15 -7 0 -28
14 -46 30 -18 17 -37 30 -42 30 -4 0 -17 8 -27 18 -67 61 -69 62 -158 62 l-86
0 -36 -39 c-21 -22 -50 -41 -69 -46 -46 -10 -155 -121 -187 -191 -14 -30 -25
-59 -25 -64 0 -6 -9 -10 -20 -10 -27 0 -70 -43 -70 -70 0 -11 -7 -20 -15 -20
-8 0 -19 -18 -27 -42 -6 -24 -15 -45 -19 -48 -3 -3 -12 -23 -19 -45 -7 -22
-18 -47 -25 -55 -7 -8 -18 -41 -24 -73 -11 -58 -30 -95 -70 -131 -12 -11 -21
-24 -21 -31 0 -7 -9 -20 -20 -30 -11 -10 -20 -23 -20 -30 0 -6 -11 -26 -25
-45 -14 -19 -25 -47 -25 -66 0 -17 -8 -42 -18 -55 -11 -13 -22 -37 -26 -53 -4
-16 -16 -41 -27 -54 -10 -14 -19 -33 -19 -42 0 -10 -9 -24 -21 -31 -33 -22
-69 -140 -69 -226 0 -52 -5 -81 -16 -99 -13 -18 -19 -61 -24 -162 -4 -81 -12
-147 -19 -161 -8 -14 -17 -73 -22 -133 -4 -60 -12 -115 -18 -121 -5 -7 -15
-49 -22 -95 -12 -76 -16 -84 -48 -107 -36 -25 -52 -59 -87 -185 -8 -30 -21
-58 -29 -63 -8 -4 -17 -24 -21 -44 -4 -19 -15 -44 -25 -54 -11 -11 -19 -31
-19 -47 0 -33 -33 -100 -64 -127 -29 -26 -62 -106 -71 -172 -4 -29 -13 -57
-20 -63 -7 -6 -19 -43 -25 -82 -7 -39 -18 -86 -26 -104 -7 -17 -18 -56 -23
-85 -5 -30 -16 -72 -25 -94 -8 -22 -15 -57 -16 -77 0 -31 -4 -39 -24 -44 -34
-8 -52 -54 -61 -149 -4 -44 -16 -107 -26 -140 -25 -81 -27 -436 -3 -500 9 -22
20 -64 24 -93 10 -64 32 -100 65 -108 14 -3 25 -12 25 -19 0 -6 9 -20 20 -30
11 -10 22 -27 26 -39 12 -40 55 -126 67 -133 7 -5 25 -27 40 -50 17 -27 35
-43 47 -43 11 0 20 -5 20 -10 0 -6 11 -16 25 -22 17 -8 25 -19 25 -37 0 -33
160 -191 194 -191 21 0 24 -6 30 -66 4 -37 13 -78 20 -93 8 -14 17 -46 21 -71
4 -25 13 -58 21 -75 7 -16 18 -50 23 -75 5 -24 16 -49 23 -55 7 -6 20 -24 28
-40 9 -17 30 -39 47 -50 18 -11 35 -32 38 -46 4 -16 32 -45 80 -82 61 -46 84
-58 127 -63 29 -4 58 -13 65 -20 7 -6 36 -15 65 -19 29 -4 62 -14 73 -21 11
-8 32 -14 46 -14 15 0 42 -12 59 -27 24 -20 47 -28 98 -33 37 -4 81 -12 97
-19 17 -7 100 -16 185 -21 85 -4 168 -12 183 -19 41 -16 233 -14 282 4 58 21
103 18 160 -10 28 -14 55 -25 62 -25 6 0 27 -8 45 -19 18 -10 57 -21 86 -24
29 -4 59 -13 68 -22 8 -8 28 -15 44 -15 26 0 60 -22 60 -39 0 -15 58 -39 110
-46 30 -4 82 -17 115 -29 53 -18 82 -21 236 -21 150 0 180 3 195 16 11 9 46
22 79 29 88 18 113 29 119 55 4 16 16 26 35 30 16 3 35 13 42 21 8 10 36 14
103 14 131 0 501 19 576 29 137 19 197 34 255 63 96 47 109 56 130 82 11 13
39 34 62 46 23 11 44 27 46 35 3 7 20 16 37 20 17 4 36 15 43 26 6 10 17 19
23 19 6 0 43 15 81 34 60 29 72 40 78 65 4 17 11 31 17 31 6 0 20 9 32 21 30
30 88 65 120 73 41 10 78 52 114 129 18 37 32 70 32 73 0 3 9 17 20 31 11 14
20 36 20 48 0 17 7 24 30 29 36 7 60 52 60 111 0 20 7 43 15 51 8 8 20 34 26
57 6 22 17 46 25 52 8 5 17 35 21 65 3 30 14 66 25 79 10 13 18 34 18 46 0 12
9 30 19 39 11 10 23 32 27 49 3 17 15 39 25 51 11 11 19 29 19 40 0 12 9 35
19 52 10 17 22 55 26 85 3 30 13 69 22 88 23 50 13 211 -16 269 -12 24 -28 45
-36 49 -8 3 -15 11 -15 19 0 7 -17 18 -39 24 -21 5 -44 17 -51 25 -8 10 -31
15 -71 15 -59 0 -59 0 -59 29 0 16 5 52 12 80 12 53 11 60 -30 191 -12 38 -23
56 -38 60 -11 3 -38 24 -59 48 -22 23 -44 42 -50 42 -5 0 -23 12 -39 26 -28
25 -28 25 -9 47 11 12 28 35 39 51 10 16 26 39 34 51 8 12 25 37 37 56 12 19
26 39 30 44 36 44 72 112 77 149 10 65 -7 115 -58 169 -71 74 -72 76 -20 133
58 62 93 115 128 188 l27 57 -3 362 c-3 322 -5 365 -21 392 -9 17 -17 39 -17
51 0 11 -9 29 -19 38 -11 10 -25 31 -31 47 -11 27 -10 36 17 87 72 139 66 190
-39 344 -10 15 -18 31 -18 36 0 5 -9 17 -20 27 -11 10 -20 24 -20 31 0 7 -11
26 -25 42 -14 17 -25 33 -25 36 0 4 -8 19 -18 34 -11 15 -32 47 -48 71 l-29
44 3 263 c4 248 3 264 -17 309 -12 26 -21 52 -21 57 0 22 -58 104 -109 154
-30 29 -77 65 -105 78 -74 37 -196 74 -268 82 -35 4 -74 12 -88 19 -14 7 -41
16 -60 19 -67 13 -138 56 -187 114 -83 98 -194 186 -254 202 -21 6 -41 15 -44
20 -5 8 -46 15 -135 24 -19 2 -57 0 -83 -5z m166 -134 c11 -7 36 -16 57 -20
21 -4 46 -15 56 -26 9 -10 23 -19 30 -19 7 0 16 -9 19 -20 3 -11 11 -20 17
-20 12 0 118 -108 118 -120 0 -14 47 -58 69 -65 10 -3 22 -12 24 -19 3 -8 25
-17 49 -21 24 -4 50 -13 59 -21 8 -8 53 -19 100 -25 46 -6 96 -17 110 -24 14
-8 54 -17 89 -21 40 -4 70 -14 81 -25 11 -11 30 -19 44 -19 14 0 29 -8 35 -19
5 -11 19 -23 30 -26 11 -3 20 -12 20 -19 0 -7 8 -21 19 -32 10 -12 24 -45 30
-74 6 -30 17 -60 24 -68 17 -21 16 -298 -1 -330 -7 -12 -15 -51 -19 -87 -5
-51 -3 -69 10 -83 8 -9 22 -33 31 -52 30 -64 49 -95 63 -103 7 -4 13 -15 13
-23 0 -8 10 -25 23 -37 12 -13 28 -35 34 -50 7 -15 17 -27 23 -27 5 0 10 -9
10 -20 0 -12 11 -31 25 -44 14 -13 25 -30 25 -38 0 -8 10 -25 23 -38 18 -21
22 -35 21 -92 0 -57 -4 -71 -22 -88 -12 -12 -22 -30 -22 -40 0 -11 -9 -28 -20
-37 -14 -13 -20 -30 -20 -60 0 -31 6 -48 20 -60 11 -10 20 -22 20 -29 0 -6 11
-16 25 -22 21 -10 25 -18 25 -57 0 -24 8 -64 18 -87 15 -37 17 -79 17 -324 0
-245 -2 -284 -16 -300 -9 -11 -19 -32 -23 -49 -4 -16 -16 -35 -27 -43 -10 -7
-19 -18 -19 -24 0 -6 -17 -27 -38 -47 -21 -21 -41 -44 -44 -52 -3 -8 -23 -23
-44 -33 -22 -11 -52 -32 -69 -48 -16 -15 -41 -36 -54 -46 -20 -16 -24 -27 -22
-72 1 -67 16 -90 78 -119 l49 -23 37 24 c28 18 38 32 43 61 4 20 8 37 10 37 2
0 15 -12 29 -26 37 -37 37 -102 1 -145 -14 -17 -26 -36 -26 -43 0 -6 -9 -19
-20 -29 -11 -9 -20 -26 -20 -36 0 -11 -4 -22 -9 -26 -14 -8 -68 -90 -75 -113
-4 -11 -13 -26 -21 -32 -8 -7 -15 -20 -15 -30 0 -15 -12 -19 -70 -25 -46 -5
-77 -13 -91 -26 -13 -11 -37 -19 -60 -19 -23 0 -44 -7 -55 -17 -9 -10 -31 -23
-48 -29 -28 -10 -61 -52 -86 -111 -5 -13 -17 -23 -25 -23 -9 0 -18 -7 -21 -15
-3 -8 -21 -19 -40 -25 -19 -7 -39 -21 -46 -33 -6 -12 -16 -26 -23 -32 -28 -25
-64 -85 -70 -117 -5 -27 -13 -37 -30 -40 -20 -4 -24 0 -29 31 -3 20 -6 49 -6
65 0 40 -47 99 -113 142 -37 23 -44 24 -215 24 -156 0 -188 -3 -271 -25 -52
-14 -104 -31 -115 -38 -12 -8 -41 -17 -65 -20 -24 -3 -57 -15 -72 -26 -16 -12
-34 -21 -41 -21 -14 0 -68 -50 -68 -63 0 -15 -58 -67 -75 -67 -9 0 -28 -12
-42 -26 l-26 -26 -36 34 c-20 19 -54 47 -76 63 -53 39 -110 96 -118 118 -3 9
-11 17 -16 17 -6 0 -20 17 -31 38 -53 97 -88 145 -123 167 -13 9 -14 18 -1 85
35 186 37 210 18 304 -13 61 -26 98 -41 114 -12 13 -23 27 -25 30 -2 4 -15 17
-29 30 -50 44 -382 82 -432 49 -12 -8 -42 -17 -67 -21 -25 -3 -59 -15 -75 -26
-17 -11 -41 -20 -55 -20 -14 0 -36 -9 -50 -20 -14 -11 -29 -20 -35 -20 -6 0
-11 37 -13 85 -3 80 -1 87 25 120 15 19 33 35 40 35 6 0 14 9 18 19 3 11 14
23 25 26 10 3 21 17 24 31 4 13 15 33 26 44 29 29 28 123 0 147 -11 10 -20 22
-20 28 0 6 -11 26 -25 45 -14 19 -25 41 -25 50 0 9 -9 25 -20 35 -11 10 -20
24 -20 30 0 7 -9 24 -20 38 -11 14 -23 40 -26 59 -3 18 -13 48 -22 65 -16 31
-15 33 3 47 19 13 20 29 23 247 4 211 6 236 23 258 10 13 19 33 19 43 0 11 9
22 20 25 11 3 20 9 20 13 0 4 11 19 25 34 14 15 25 31 25 37 0 5 7 9 16 9 9 0
18 9 21 20 3 11 12 20 19 20 8 0 19 9 26 20 7 11 18 20 24 20 6 0 28 11 48 25
20 14 43 25 51 25 8 0 20 8 27 18 7 11 24 25 38 32 14 7 29 19 33 26 4 8 13
14 19 14 6 0 30 20 54 45 23 25 47 45 52 45 6 0 14 9 17 20 3 11 13 20 21 20
8 0 17 7 20 15 14 36 62 75 93 75 21 0 34 6 38 18 7 17 49 60 97 97 68 53 150
130 191 179 17 20 38 45 48 56 9 11 17 24 17 29 0 4 11 20 25 35 14 15 25 36
25 47 0 12 8 23 20 26 13 4 20 14 20 32 0 14 12 49 25 76 14 28 25 57 25 66 0
9 9 27 19 41 11 13 22 41 26 61 4 20 13 37 20 37 7 0 18 14 24 30 5 17 14 30
19 30 6 0 13 11 16 25 4 14 15 34 25 44 11 11 22 29 26 42 4 12 18 33 31 46
13 13 24 28 24 33 0 6 6 10 13 10 12 0 67 62 67 76 0 3 19 29 43 57 51 62 68
89 82 133 3 9 14 18 25 21 11 3 20 9 20 14 0 15 153 10 173 -6z m-2229 -403
c22 -15 77 -64 123 -109 66 -64 103 -91 176 -126 51 -25 108 -49 127 -52 79
-15 130 -105 108 -195 -6 -25 -19 -58 -28 -75 -10 -16 -21 -44 -24 -61 -4 -18
-28 -53 -56 -82 -57 -59 -99 -122 -111 -168 -5 -17 -19 -43 -32 -57 -12 -14
-41 -48 -65 -76 -24 -27 -52 -53 -61 -56 -10 -3 -32 -26 -50 -50 -18 -25 -37
-45 -43 -45 -5 0 -21 -9 -35 -20 -42 -33 -122 -28 -176 11 -23 17 -48 42 -56
57 -25 49 -74 104 -102 116 -35 15 -129 121 -129 145 0 19 -81 101 -100 101
-12 0 -27 11 -78 59 -34 33 -35 36 -36 111 -1 57 3 83 15 96 8 11 30 49 49 87
18 37 36 67 40 67 12 0 146 184 157 216 14 39 58 84 83 84 10 0 31 11 47 24
41 34 50 36 138 30 64 -5 88 -11 119 -32z m1426 -66 c0 -14 -24 -66 -30 -66
-11 0 -30 -57 -30 -89 0 -15 -8 -31 -20 -39 -11 -7 -20 -18 -20 -25 0 -8 -11
-24 -25 -37 -14 -13 -25 -31 -25 -39 0 -9 -9 -22 -20 -29 -11 -7 -20 -19 -20
-27 0 -8 -9 -19 -20 -25 -11 -6 -23 -22 -26 -35 -9 -35 -30 -48 -75 -47 -37 2
-76 -11 -89 -28 -14 -18 -367 -73 -398 -62 -22 8 20 31 45 25 17 -4 42 11 105
63 46 37 88 74 93 81 14 17 75 60 103 72 12 6 22 15 22 21 0 5 16 16 35 25 20
8 43 21 51 30 9 8 22 15 29 15 8 0 19 9 25 20 6 11 16 20 23 20 7 0 25 11 41
25 16 14 35 25 42 25 7 0 18 9 24 20 6 11 16 20 23 20 7 0 35 20 62 45 42 37
75 56 75 41z m-376 -598 c-6 -21 -41 -76 -55 -88 -20 -17 -119 -141 -119 -149
0 -5 -9 -12 -19 -16 -11 -3 -23 -15 -26 -26 -4 -10 -13 -19 -22 -19 -8 0 -17
-9 -20 -20 -3 -11 -8 -20 -12 -20 -4 0 -29 -20 -56 -45 -28 -25 -64 -50 -82
-55 -17 -6 -34 -17 -36 -24 -3 -7 -18 -17 -33 -20 -16 -4 -34 -16 -42 -27 -7
-10 -19 -19 -27 -19 -8 0 -19 -9 -25 -20 -6 -11 -16 -20 -21 -20 -10 0 -55
-44 -140 -135 -10 -12 -19 -26 -19 -33 0 -7 -6 -12 -14 -12 -8 0 -18 -10 -21
-22 -4 -13 -16 -32 -26 -44 -13 -14 -21 -43 -26 -90 -6 -67 -30 -113 -58 -114
-18 0 -65 -68 -71 -102 -4 -18 -13 -38 -21 -45 -22 -17 -40 -158 -23 -178 13
-16 48 -20 65 -7 23 16 46 65 51 109 4 27 13 53 20 59 7 6 18 22 23 35 8 19
10 12 10 -39 1 -43 -4 -71 -16 -89 -24 -37 -26 -229 -2 -246 9 -7 19 -28 23
-48 3 -21 13 -42 21 -49 8 -6 19 -27 25 -46 6 -19 18 -34 25 -34 8 0 19 -16
24 -36 6 -20 17 -44 25 -53 14 -16 19 -43 17 -92 -1 -18 -21 -46 -66 -90 -35
-35 -67 -75 -70 -88 -3 -13 -13 -30 -20 -38 -8 -8 -15 -31 -15 -52 0 -47 -7
-54 -34 -36 -25 18 -117 20 -134 3 -22 -22 -13 -47 26 -72 20 -13 53 -27 73
-30 20 -4 44 -15 54 -25 9 -11 34 -22 55 -26 56 -9 63 -39 19 -76 -19 -16 -38
-29 -42 -29 -5 0 -20 -9 -34 -20 -14 -11 -34 -20 -45 -20 -10 0 -24 -11 -30
-25 -6 -14 -17 -25 -23 -25 -7 0 -20 -10 -28 -22 -16 -23 -16 -23 -16 13 -1
50 -67 131 -123 152 -10 3 -18 11 -18 17 0 15 -86 12 -99 -4 -8 -10 -9 -25 -3
-47 6 -27 15 -36 43 -43 19 -5 38 -16 42 -23 4 -7 13 -13 18 -13 6 0 33 -24
60 -52 34 -37 49 -61 49 -80 0 -18 -5 -28 -15 -28 -8 0 -17 -11 -21 -25 -3
-14 -12 -25 -19 -25 -21 0 -75 -50 -75 -70 0 -32 -39 -47 -119 -45 -64 2 -77
6 -93 25 -10 12 -18 31 -18 42 0 40 -47 104 -111 150 -61 44 -99 34 -99 -27 0
-26 10 -41 55 -81 31 -27 63 -52 71 -57 8 -5 19 -20 24 -33 14 -36 -11 -70
-58 -79 -20 -4 -44 -12 -52 -20 -8 -7 -32 -16 -53 -19 -21 -4 -47 -16 -58 -27
-10 -10 -23 -19 -29 -19 -5 0 -30 -20 -54 -45 -25 -25 -55 -45 -66 -45 -11 0
-29 -9 -39 -19 -29 -29 -31 -14 -31 191 0 165 -2 182 -20 205 -16 21 -20 41
-20 109 0 62 -5 97 -21 136 -20 50 -22 71 -23 335 -1 259 0 283 17 295 10 8
21 36 27 68 5 30 18 73 29 95 12 21 21 47 21 56 0 9 7 19 14 22 8 3 18 21 21
40 4 21 22 51 47 75 30 31 41 51 45 84 4 25 14 48 25 56 10 7 18 22 18 32 0
10 7 25 15 34 19 19 35 60 35 92 0 14 6 24 14 24 8 0 18 10 21 23 9 27 52 67
74 67 24 1 90 64 102 99 6 17 16 31 23 31 6 0 28 17 47 38 20 22 48 42 63 46
34 8 93 66 102 100 3 14 12 30 20 37 8 6 14 18 14 25 0 18 11 18 46 -1 36 -19
57 -19 97 -1 18 8 48 17 68 20 20 4 44 15 54 26 10 11 24 20 30 20 7 0 18 7
25 15 7 8 30 20 51 25 22 6 39 17 39 25 0 8 8 19 19 24 10 6 21 24 24 40 4 17
14 39 24 50 42 45 63 73 63 85 0 7 11 23 25 36 14 13 25 28 25 34 0 6 13 17
29 24 22 10 34 25 46 62 9 27 23 54 31 60 7 7 14 19 14 26 0 8 9 23 19 33 11
11 25 29 31 41 l12 22 22 -21 c13 -13 36 -21 55 -21 19 0 62 -5 97 -12 54 -10
66 -9 87 5 14 9 56 21 94 27 38 6 72 17 78 25 14 21 17 19 9 -7z m-1703 -131
c14 -17 35 -49 48 -69 12 -21 28 -38 35 -38 7 0 37 -25 67 -55 74 -75 79 -81
119 -148 26 -45 43 -63 68 -71 78 -27 66 -71 -52 -192 -51 -52 -98 -94 -104
-94 -6 0 -16 -8 -21 -18 -5 -9 -33 -26 -61 -36 -43 -16 -55 -25 -67 -55 -8
-20 -35 -58 -60 -86 -68 -76 -69 -78 -83 -104 -7 -14 -24 -36 -37 -50 -33 -36
-120 -217 -133 -279 -6 -28 -18 -56 -26 -63 -8 -6 -14 -16 -14 -22 0 -18 -69
-154 -85 -167 -8 -7 -15 -19 -15 -27 0 -7 -9 -32 -21 -55 -41 -81 -41 -487 1
-670 11 -48 20 -96 20 -107 0 -12 9 -30 20 -41 29 -29 51 -180 60 -415 7 -195
14 -237 44 -257 19 -13 100 -9 147 7 44 15 99 57 99 75 0 27 116 118 162 127
18 3 50 14 71 25 43 21 203 35 278 24 40 -6 47 -11 64 -49 19 -39 23 -42 60
-42 l40 0 0 80 c1 53 6 90 17 110 8 17 19 45 23 62 3 18 25 57 48 87 23 30 50
68 59 85 9 17 34 39 55 48 21 9 65 40 98 68 33 27 68 57 78 65 10 8 35 31 55
51 20 20 69 51 107 70 63 30 79 34 154 34 58 0 85 -4 88 -12 3 -7 -2 -13 -11
-13 -9 0 -24 -8 -34 -17 -9 -10 -29 -23 -44 -30 -15 -7 -35 -19 -45 -28 -10
-9 -39 -32 -65 -51 -50 -36 -133 -152 -149 -207 -5 -18 -9 -87 -9 -154 l0
-121 34 -39 c19 -21 45 -53 58 -72 13 -19 43 -49 68 -67 36 -26 55 -33 95 -33
28 -1 56 4 61 9 9 9 74 32 74 26 0 -1 -9 -20 -20 -42 -26 -52 -70 -100 -99
-109 -28 -9 -76 -59 -93 -100 -14 -34 -100 -125 -119 -125 -26 0 -106 -55
-171 -116 -36 -35 -74 -64 -83 -64 -9 0 -31 -6 -48 -14 -71 -32 -165 -66 -217
-78 -74 -17 -131 -48 -155 -85 -18 -28 -63 -53 -94 -53 -15 0 -172 -90 -186
-106 -5 -7 -30 -18 -55 -24 -47 -12 -80 -35 -80 -55 0 -20 -141 -115 -171
-115 -11 0 -32 -9 -48 -21 -34 -25 -89 -38 -161 -39 -75 0 -109 11 -172 57
-29 22 -66 44 -83 50 -20 7 -39 26 -62 65 -18 30 -50 71 -73 91 -22 20 -40 41
-40 45 0 15 -56 62 -73 62 -9 0 -17 5 -17 10 0 14 -25 66 -54 115 -45 72 -86
162 -86 184 0 12 -7 36 -16 53 -16 30 -64 226 -64 259 0 9 7 31 16 49 9 18 20
67 25 109 4 42 14 92 22 111 8 19 18 64 21 100 4 35 12 73 18 85 7 11 17 45
24 75 31 135 61 247 71 265 6 11 14 46 18 78 6 50 11 60 35 72 30 15 30 16 75
175 15 52 35 113 45 135 11 22 32 79 48 126 25 74 37 95 84 142 44 43 56 63
62 97 4 23 13 55 22 71 25 50 63 191 74 282 6 46 14 98 20 113 5 16 13 82 19
146 6 70 16 127 25 140 22 35 44 123 57 228 7 60 20 114 35 146 13 28 24 59
24 69 0 20 38 118 70 180 11 21 20 46 20 55 0 9 18 33 39 54 22 21 42 49 45
62 10 37 54 32 87 -9z m1523 -2327 c31 -13 50 -28 57 -47 6 -15 18 -43 27 -62
12 -24 17 -61 17 -120 l0 -86 -42 -45 c-24 -25 -46 -53 -49 -64 -14 -42 -67
-105 -133 -158 -28 -23 -43 -28 -92 -28 -31 0 -65 3 -74 6 -9 4 -30 34 -47 67
-28 56 -30 69 -31 166 -1 86 4 119 23 176 26 79 80 138 140 155 19 5 57 21 84
35 59 30 62 30 120 5z m2339 -406 c17 -18 -43 -83 -99 -108 -18 -8 -42 -32
-57 -58 -40 -68 -51 -154 -39 -306 9 -116 14 -135 38 -172 34 -51 55 -60 145
-60 38 0 69 -2 69 -4 0 -2 -7 -17 -15 -32 -8 -16 -15 -37 -15 -46 0 -9 -11
-34 -25 -54 -14 -20 -25 -43 -25 -50 0 -8 -4 -14 -9 -14 -5 0 -12 -9 -16 -19
-3 -11 -26 -46 -50 -77 -25 -32 -45 -62 -45 -66 0 -5 -11 -24 -25 -42 -14 -18
-25 -38 -25 -43 0 -6 -7 -16 -15 -23 -8 -7 -20 -31 -27 -54 -6 -22 -20 -53
-30 -68 -10 -14 -18 -30 -18 -35 0 -4 -16 -21 -36 -38 -67 -56 -92 -87 -99
-121 -3 -19 -10 -34 -15 -34 -4 0 -35 -22 -68 -50 -33 -27 -66 -50 -74 -50
-23 0 -137 -93 -159 -129 -26 -42 -66 -78 -108 -97 -51 -23 -167 -120 -190
-160 -14 -23 -36 -41 -66 -54 -25 -11 -58 -31 -73 -45 -15 -14 -48 -42 -74
-63 -26 -20 -52 -49 -59 -64 -7 -17 -27 -34 -50 -45 -22 -9 -39 -20 -39 -24 0
-14 -114 -69 -155 -76 -56 -9 -158 -48 -235 -90 -82 -45 -164 -52 -202 -16
-12 12 -41 26 -63 32 -100 25 -162 43 -190 56 -16 7 -57 20 -90 28 -56 14
-284 81 -313 92 -22 8 16 53 51 61 54 11 170 52 212 73 21 12 48 21 58 21 26
0 196 58 225 76 12 8 22 21 22 29 0 9 9 15 23 15 13 0 46 11 72 25 27 13 61
27 76 30 15 4 33 12 39 20 6 7 30 16 55 19 24 4 54 15 67 25 13 10 34 22 47
26 30 9 94 53 104 71 4 8 13 14 19 14 6 0 49 26 95 58 47 31 111 73 143 92 69
42 140 103 140 122 1 26 102 115 146 129 15 5 84 88 84 100 0 25 82 118 126
144 33 18 78 84 89 127 4 15 13 32 20 38 8 6 17 26 20 43 4 18 14 42 22 55 8
13 18 47 23 76 10 61 40 114 92 165 23 22 40 49 44 71 7 38 38 90 99 167 14
17 32 48 41 70 16 39 61 93 77 93 5 0 41 32 80 70 39 39 75 70 80 70 6 0 19 9
31 20 66 64 100 83 119 64z m-2104 -76 c1 -28 43 -117 71 -148 8 -9 29 -33 45
-53 17 -20 35 -37 40 -37 6 0 16 -9 23 -20 7 -11 18 -20 26 -20 7 0 26 -11 42
-25 16 -14 34 -25 40 -25 18 0 74 -31 74 -41 0 -4 -11 -16 -25 -25 -15 -10
-25 -26 -25 -41 0 -18 -9 -28 -35 -39 -20 -8 -64 -44 -99 -79 -35 -36 -68 -65
-74 -65 -6 0 -16 -16 -22 -35 -6 -19 -21 -40 -33 -46 -26 -14 -36 -22 -104
-89 -28 -27 -54 -50 -57 -50 -8 0 -39 -27 -84 -74 -20 -21 -50 -45 -67 -53
-16 -9 -35 -21 -42 -28 -6 -7 -29 -16 -50 -20 -21 -4 -45 -12 -53 -20 -8 -7
-41 -15 -73 -18 -32 -3 -69 -12 -81 -21 -15 -10 -85 -21 -202 -32 -177 -17
-214 -27 -214 -59 0 -14 -80 -29 -108 -21 -9 3 -23 19 -30 36 -8 18 -27 36
-47 44 -30 13 -65 49 -65 68 0 12 69 38 101 38 21 0 33 7 40 23 12 24 85 63
140 74 34 6 109 42 136 64 16 14 63 40 118 67 22 11 65 47 95 81 30 33 61 61
68 61 7 0 15 7 18 15 10 24 34 18 34 -9 0 -61 90 -135 127 -104 34 28 3 78
-80 128 -44 26 -45 50 -3 61 37 10 66 37 66 61 0 12 6 18 17 16 10 -2 19 5 22
17 8 26 54 96 75 114 9 7 16 19 16 27 0 7 9 18 20 24 11 6 20 19 20 30 0 32
11 50 31 50 13 0 19 -7 19 -24 0 -13 6 -35 13 -48 16 -32 127 -137 152 -144
11 -3 30 -10 42 -16 27 -13 53 4 53 35 0 22 -56 82 -92 97 -13 6 -43 26 -68
44 -25 19 -55 35 -67 35 -13 1 -23 5 -23 11 0 18 34 95 57 129 13 19 23 40 23
48 0 8 9 26 20 40 11 14 20 35 21 47 1 19 2 18 9 -4 4 -14 8 -37 9 -52z m2312
-45 c30 -29 43 -52 54 -95 32 -124 19 -157 -114 -286 -107 -103 -148 -124
-200 -102 -55 22 -64 50 -69 205 -4 134 -3 141 18 160 12 11 31 31 43 44 12
14 41 44 65 68 41 41 45 43 103 43 55 0 63 -3 100 -37z m-1262 -102 c11 -7 4
-11 -25 -17 -63 -11 -72 -19 -84 -81 -7 -32 -18 -68 -26 -81 -8 -12 -19 -56
-24 -97 -5 -42 -14 -84 -20 -95 -5 -10 -10 -63 -10 -117 0 -112 18 -166 67
-199 41 -28 182 -26 238 3 100 51 163 30 80 -27 -30 -21 -45 -39 -50 -62 -4
-17 -13 -37 -19 -44 -6 -6 -22 -26 -36 -44 -36 -46 -130 -140 -141 -140 -4 0
-15 -13 -23 -29 -16 -30 -178 -193 -199 -200 -18 -5 -57 -43 -57 -55 0 -20
-122 -108 -184 -133 -103 -40 -208 -97 -223 -120 -8 -12 -29 -25 -46 -28 -18
-4 -50 -17 -72 -30 -22 -12 -81 -37 -132 -54 -51 -17 -100 -35 -110 -40 -41
-23 -113 -49 -152 -56 -28 -5 -47 -15 -58 -31 -8 -13 -20 -24 -27 -24 -6 0
-28 -9 -48 -20 -21 -11 -57 -23 -80 -26 -24 -4 -53 -13 -65 -20 -12 -8 -28
-14 -36 -14 -7 0 -31 -9 -52 -21 -22 -11 -62 -26 -90 -34 -27 -7 -65 -21 -84
-31 -23 -11 -67 -19 -130 -22 -125 -6 -415 14 -477 33 -27 8 -66 15 -87 15
-47 0 -357 67 -373 81 -7 5 -36 12 -65 16 -55 6 -119 42 -119 66 0 7 -15 28
-33 47 -18 19 -43 52 -56 73 -12 20 -27 37 -32 37 -20 0 -49 42 -49 70 0 16
-9 47 -20 67 -11 21 -21 61 -22 88 l-3 50 66 -3 c109 -6 154 13 217 92 7 9 23
16 36 16 13 0 31 9 41 20 10 11 24 20 31 20 7 0 25 10 41 23 39 31 107 67 128
67 10 0 44 27 77 61 58 59 128 99 194 113 29 7 34 3 63 -40 17 -26 31 -53 31
-59 0 -7 13 -30 29 -52 24 -33 42 -44 106 -67 55 -20 90 -26 119 -23 102 12
255 38 296 51 25 8 78 19 118 25 76 12 125 31 151 61 9 10 39 22 66 28 78 16
249 87 281 117 12 11 34 30 48 42 14 11 31 34 38 50 15 36 62 81 93 89 28 7
130 114 165 174 16 26 38 47 60 56 47 20 158 130 176 175 11 27 29 44 67 64
29 16 67 45 85 66 18 21 47 47 65 58 18 11 39 31 46 45 10 18 27 26 75 36 33
7 70 17 81 23 45 24 138 34 164 18z m244 -109 c62 -28 77 -61 77 -177 0 -78
-4 -101 -25 -146 -40 -85 -66 -116 -107 -128 -21 -7 -38 -15 -38 -20 0 -15
-130 -44 -177 -38 -73 8 -78 19 -77 160 2 123 7 156 42 257 15 45 25 58 53 72
20 9 42 24 49 33 12 15 26 17 86 12 40 -3 92 -14 117 -25z m1372 -162 c8 -6
17 -26 21 -43 4 -18 13 -46 22 -63 13 -29 13 -35 -3 -65 -9 -19 -23 -68 -31
-110 -18 -99 -55 -184 -85 -192 -13 -4 -40 4 -69 18 -54 27 -83 75 -105 173
-7 31 -19 71 -26 89 -12 29 -11 37 9 76 12 24 22 51 22 59 0 23 38 66 63 72
37 8 167 -2 182 -14z m-345 -277 c6 -16 15 -37 20 -48 5 -11 14 -37 20 -57 6
-21 15 -40 20 -43 5 -3 23 -36 41 -74 32 -68 35 -70 91 -91 53 -19 72 -40 49
-54 -5 -4 -22 -38 -36 -77 -15 -39 -38 -80 -51 -91 -12 -11 -25 -32 -29 -47
-4 -14 -13 -34 -22 -43 -8 -9 -19 -36 -24 -60 -10 -46 -47 -145 -62 -165 -16
-22 -77 -148 -77 -159 0 -7 -16 -15 -35 -18 -19 -4 -39 -16 -45 -26 -6 -11
-15 -20 -21 -20 -9 0 -74 -47 -107 -77 -7 -7 -21 -13 -30 -13 -28 0 -82 -38
-92 -64 -5 -13 -19 -31 -32 -40 -58 -41 -100 -66 -121 -72 -12 -3 -47 -21 -77
-39 -30 -19 -69 -41 -86 -49 -17 -7 -41 -27 -52 -44 -20 -27 -30 -31 -104 -41
-46 -7 -137 -16 -203 -21 -66 -5 -171 -14 -234 -20 -71 -6 -120 -6 -130 0 -9
5 -11 10 -4 10 6 0 26 22 44 50 18 27 40 52 51 55 10 4 18 10 18 15 0 4 12 11
26 14 33 9 181 131 189 157 4 11 25 28 48 39 50 24 177 120 227 172 19 20 73
67 120 105 47 37 94 76 105 86 11 10 42 32 69 50 36 23 53 42 60 67 10 31 34
73 105 180 9 14 23 44 30 68 8 29 20 46 35 52 36 13 123 152 140 222 7 30 35
77 89 148 19 25 37 55 41 68 10 30 24 28 36 -5z"/>
<path d="M4475 7468 c-72 -14 -92 -24 -111 -54 -14 -21 -15 -30 -6 -45 6 -10
15 -37 18 -61 4 -24 14 -52 24 -63 10 -11 21 -30 24 -42 14 -44 100 -42 136 4
25 32 27 101 4 149 -15 32 -15 36 0 53 13 14 14 24 7 45 -11 28 -17 29 -96 14z"/>
<path d="M5198 7166 c-10 -7 -18 -18 -18 -24 0 -6 -7 -18 -16 -27 -9 -9 -27
-32 -40 -51 l-24 -34 21 -40 c19 -36 25 -40 60 -40 25 0 46 7 58 19 11 11 29
24 40 31 18 9 21 20 21 83 0 44 -5 78 -12 85 -16 16 -69 15 -90 -2z"/>
<path d="M4155 7130 c-34 -22 -43 -41 -44 -88 -1 -30 13 -69 28 -82 4 -3 11
-16 17 -30 7 -14 28 -34 49 -45 l37 -20 19 24 c10 13 19 32 19 42 0 11 5 27
11 37 9 14 7 27 -10 59 -11 23 -25 44 -31 48 -5 3 -10 15 -10 25 0 21 -25 50
-43 50 -7 0 -25 -9 -42 -20z"/>
<path d="M4789 7125 c-8 -8 -45 -19 -82 -23 -66 -8 -107 -30 -107 -58 0 -16
-31 -34 -57 -34 -10 0 -31 -11 -46 -25 -25 -24 -27 -32 -27 -100 0 -61 4 -79
19 -94 11 -11 24 -29 31 -40 8 -15 21 -21 45 -21 29 0 39 6 55 33 28 45 73 97
86 97 25 0 46 38 39 69 -8 38 -30 51 -86 51 -23 0 -40 3 -36 6 3 4 48 6 99 5
112 -2 128 6 135 70 7 65 -31 101 -68 64z"/>
<path d="M5048 6939 c-53 -39 -62 -156 -15 -199 31 -30 127 -26 127 5 0 6 9
22 20 35 29 33 27 100 -2 127 -17 16 -93 55 -102 53 0 0 -13 -10 -28 -21z"/>
<path d="M3883 6858 c-38 -13 -49 -49 -38 -126 10 -70 28 -92 73 -92 58 0 83
32 89 114 6 71 -2 90 -40 99 -12 2 -29 7 -37 10 -8 3 -30 0 -47 -5z"/>
<path d="M5356 6775 c-3 -8 -11 -15 -18 -15 -7 0 -25 -16 -40 -34 -37 -46 -37
-97 -2 -147 66 -95 169 -38 181 101 8 82 -10 110 -71 110 -30 0 -46 -5 -50
-15z"/>
<path d="M4115 6663 c-16 -3 -35 -9 -41 -14 -7 -6 -22 -6 -38 1 -43 16 -54 13
-49 -15 3 -13 11 -29 19 -35 10 -9 5 -22 -27 -68 -56 -81 -53 -103 18 -131 26
-11 37 -10 60 1 24 12 28 19 28 56 0 38 6 48 53 96 55 57 65 88 33 106 -11 5
-21 9 -23 9 -2 -1 -16 -4 -33 -6z"/>
<path d="M4642 6590 c-31 -34 -42 -73 -42 -155 0 -61 19 -92 63 -100 41 -8 74
5 115 43 28 26 32 36 32 82 0 28 -5 61 -12 73 -21 40 -63 77 -95 83 -27 5 -36
2 -61 -26z"/>
<path d="M5159 6431 c-21 -17 -24 -28 -24 -89 0 -69 0 -70 42 -108 81 -76 115
-96 152 -90 19 3 39 10 45 16 6 6 13 52 15 101 3 81 1 91 -16 95 -10 3 -25 18
-34 33 -32 55 -134 79 -180 42z"/>
<path d="M3746 6331 c-10 -11 -28 -22 -40 -25 -12 -3 -34 -22 -48 -41 -31 -43
-26 -88 12 -116 22 -16 31 -17 68 -7 23 6 47 19 52 28 6 10 23 21 40 25 17 4
35 15 40 25 17 32 12 88 -10 110 -27 27 -90 27 -114 1z"/>
<path d="M4622 6302 c-17 -11 -31 -104 -22 -151 4 -21 15 -50 26 -64 16 -23
27 -26 72 -27 48 0 53 2 63 28 6 15 9 55 6 90 -4 57 -8 65 -43 97 -37 34 -74
44 -102 27z"/>
<path d="M4093 6040 c-12 -5 -24 -21 -28 -39 -4 -17 -11 -33 -16 -36 -29 -18
14 -117 62 -145 48 -27 78 -25 119 5 32 24 70 83 70 110 0 17 -41 99 -54 107
-15 10 -126 9 -153 -2z"/>
<path d="M4747 5955 c-13 -13 -17 -35 -17 -95 0 -82 9 -121 35 -146 8 -9 15
-21 15 -29 0 -7 19 -23 41 -34 39 -21 42 -21 60 -5 11 9 19 26 19 37 0 11 7
25 16 32 10 7 19 32 21 62 5 42 2 54 -16 72 -11 11 -21 27 -21 34 0 7 -13 28
-29 46 -36 40 -97 53 -124 26z"/>
<path d="M3420 5920 c-8 -5 -29 -10 -47 -10 -43 0 -65 -24 -59 -63 6 -40 25
-53 84 -61 94 -12 167 26 160 83 -5 43 -98 77 -138 51z"/>
<path d="M5118 5890 c-35 -27 -47 -109 -33 -215 9 -63 49 -105 100 -105 19 0
37 -4 40 -10 9 -14 48 -13 63 2 7 7 12 33 12 60 0 30 7 60 20 80 35 58 23 133
-26 158 -16 8 -37 22 -47 32 -25 25 -97 24 -129 -2z"/>
<path d="M5545 5772 c-39 -27 -55 -66 -55 -131 1 -90 28 -121 107 -121 57 0
83 22 83 71 0 21 -4 39 -9 39 -5 0 -11 18 -15 40 -3 21 -14 47 -24 57 -11 10
-22 26 -25 36 -6 17 -43 23 -62 9z"/>
<path d="M3585 5623 c-14 -13 -16 -28 -11 -73 6 -48 4 -60 -14 -80 -22 -26
-27 -82 -7 -98 27 -23 65 -24 86 -3 12 12 25 21 29 21 5 0 32 21 60 46 45 41
52 52 52 85 0 35 -30 86 -65 111 -20 15 -113 9 -130 -9z"/>
<path d="M2925 5603 c-16 -13 -35 -61 -35 -91 0 -30 23 -102 45 -142 8 -14 21
-42 29 -62 14 -35 18 -38 55 -38 42 0 61 18 61 56 0 10 7 25 16 35 16 18 12
79 -6 79 -4 0 -11 21 -15 46 -3 26 -15 53 -26 62 -10 9 -19 22 -19 29 0 6 -4
14 -8 17 -17 10 -87 17 -97 9z"/>
<path d="M4210 5490 c-17 -17 -24 -19 -36 -9 -12 9 -20 9 -39 -1 -14 -7 -25
-17 -25 -22 0 -5 -10 -22 -22 -39 -18 -24 -22 -42 -21 -100 1 -38 7 -76 13
-84 18 -22 86 -19 102 4 7 10 28 22 46 25 18 4 39 14 47 22 12 13 16 11 30
-16 8 -16 20 -30 25 -30 17 0 11 60 -5 67 -13 4 -14 18 -9 77 5 61 4 74 -12
93 -29 34 -68 39 -94 13z"/>
<path d="M4986 5386 c-20 -37 -18 -63 7 -130 10 -28 24 -43 52 -56 37 -17 38
-17 74 7 62 42 63 124 2 181 -27 25 -44 32 -76 32 -36 0 -43 -4 -59 -34z"/>
<path d="M5588 5310 c-9 -15 -24 -20 -53 -20 -89 0 -110 -55 -46 -120 32 -32
47 -40 76 -40 20 0 45 5 55 10 40 21 56 161 21 180 -28 15 -39 13 -53 -10z"/>
<path d="M3633 5183 c-3 -10 -17 -30 -31 -45 -24 -26 -32 -28 -103 -28 -62 0
-81 -4 -103 -21 -32 -25 -34 -63 -3 -83 29 -20 321 -26 339 -8 7 7 12 40 12
77 0 50 -5 72 -21 93 -25 34 -80 43 -90 15z"/>
<path d="M4948 5071 c-35 -35 -36 -73 -2 -103 14 -13 36 -33 48 -45 13 -13 28
-23 34 -23 5 0 12 -6 15 -14 8 -21 84 -54 112 -48 34 6 58 42 50 74 -8 31
-126 158 -147 158 -9 0 -21 7 -28 15 -19 23 -52 17 -82 -14z"/>
<path d="M4680 4912 c-16 -17 -30 -40 -30 -52 0 -27 66 -94 83 -84 42 26 67
61 67 95 0 41 -13 56 -58 65 -26 5 -36 1 -62 -24z"/>
<path d="M5455 4904 c-16 -13 -36 -29 -43 -35 -7 -6 -12 -25 -10 -42 2 -25 13
-37 58 -64 63 -38 92 -37 129 4 19 22 22 33 17 65 -4 22 -16 53 -28 69 -28 38
-80 40 -123 3z"/>
<path d="M2976 4874 c-12 -12 -16 -37 -16 -104 0 -82 2 -91 27 -122 36 -43 43
-48 73 -48 30 0 88 34 97 56 3 9 -2 32 -12 51 -11 19 -19 57 -20 86 -1 28 -6
52 -12 54 -6 2 -21 13 -34 24 -27 23 -82 25 -103 3z"/>
<path d="M3955 4850 c-19 -21 -31 -95 -21 -134 3 -13 15 -28 26 -31 11 -3 20
-15 20 -26 0 -10 4 -19 10 -19 5 0 17 -8 27 -19 21 -21 80 -33 104 -20 34 18
34 144 0 157 -9 3 -22 14 -29 24 -7 10 -20 18 -28 18 -8 0 -14 8 -14 18 0 24
-31 52 -57 52 -11 0 -28 -9 -38 -20z"/>
<path d="M3386 4625 c-57 -53 -20 -139 82 -191 19 -10 58 11 78 41 16 24 15
27 -11 64 -14 22 -33 42 -41 45 -8 3 -14 12 -14 19 0 18 -32 47 -52 47 -8 0
-27 -11 -42 -25z"/>
<path d="M4907 4532 c-30 -32 -33 -44 -13 -61 7 -6 16 -35 18 -63 5 -44 11
-56 43 -85 21 -19 45 -31 52 -28 8 3 19 5 23 5 5 0 25 16 45 37 52 53 49 96
-9 157 -25 25 -54 46 -65 46 -11 0 -23 5 -26 10 -11 18 -41 10 -68 -18z"/>
<path d="M4373 4489 c-26 -7 -33 -16 -38 -43 -6 -27 -13 -35 -38 -43 -60 -17
-62 -91 -4 -130 40 -27 117 -32 137 -8 7 8 21 15 31 15 12 0 24 11 30 28 12
30 7 159 -7 172 -15 14 -77 19 -111 9z"/>
<path d="M3630 4430 c-13 -24 -2 -95 16 -111 8 -6 14 -17 14 -23 0 -26 27 -46
76 -55 66 -13 88 -6 109 32 16 31 16 33 -8 76 -34 59 -97 101 -153 101 -33 0
-46 -5 -54 -20z"/>
<path d="M4792 4128 c-7 -7 -12 -17 -12 -24 0 -6 -10 -15 -22 -18 -25 -6 -58
-64 -58 -99 1 -36 44 -102 70 -105 47 -7 109 9 140 37 30 26 33 33 33 92 1 73
-13 106 -49 119 -35 14 -88 12 -102 -2z"/>
<path d="M3906 3966 c-27 -25 -36 -42 -36 -65 0 -43 26 -101 45 -101 9 0 19
-8 22 -17 9 -26 23 -33 64 -33 30 0 41 6 63 35 47 61 47 138 1 188 -21 22 -34
27 -75 27 -41 0 -54 -5 -84 -34z"/>
<path d="M3661 3838 c-35 -38 -42 -96 -15 -119 17 -14 112 -17 133 -5 14 9 15
81 1 107 -10 18 -59 49 -79 49 -5 0 -24 -15 -40 -32z"/>
<path d="M2084 7169 c-10 -11 -32 -26 -49 -34 -37 -15 -96 -74 -119 -118 -14
-26 -15 -38 -7 -60 9 -23 15 -27 34 -21 34 10 43 20 55 63 9 27 20 42 40 50
15 6 52 33 82 60 48 42 53 50 41 65 -19 22 -54 20 -77 -5z"/>
<path d="M2444 6921 c-17 -4 -42 -15 -55 -24 -13 -10 -30 -17 -39 -17 -8 0
-27 -6 -42 -14 -15 -8 -40 -17 -57 -21 -19 -4 -41 -21 -60 -47 -25 -33 -30
-53 -36 -121 -4 -45 -2 -128 3 -185 8 -93 12 -106 38 -134 28 -29 31 -30 99
-26 53 4 78 11 105 29 85 60 140 101 140 107 0 4 44 52 97 107 53 55 102 114
109 132 8 18 14 59 14 91 0 53 -3 61 -35 92 -34 33 -35 33 -142 36 -60 2 -122
0 -139 -5z m229 -86 c21 -21 26 -32 21 -53 -4 -15 -12 -34 -20 -42 -7 -8 -15
-26 -19 -40 -6 -24 -103 -140 -117 -140 -19 0 -100 -65 -113 -90 -9 -18 -30
-34 -57 -44 -74 -26 -82 -26 -113 -1 l-29 24 -1 134 0 134 30 26 c17 15 35 27
40 27 6 0 29 9 50 21 92 47 160 68 230 68 62 1 73 -2 98 -24z"/>
<path d="M2216 5574 c-18 -18 -22 -107 -6 -148 8 -22 16 -26 48 -26 21 0 43 5
50 12 18 18 15 124 -4 153 -19 29 -64 34 -88 9z"/>
<path d="M2091 5498 c-6 -7 -24 -29 -41 -49 -16 -20 -30 -43 -30 -50 0 -17
-47 -111 -59 -119 -4 -3 -31 -33 -60 -67 -35 -43 -51 -71 -51 -91 0 -35 29
-65 50 -52 8 5 25 10 37 10 12 0 35 11 51 25 17 14 33 25 36 25 9 0 76 65 76
74 0 3 8 14 18 24 13 13 21 40 25 93 3 40 11 75 17 77 11 4 14 71 2 88 -12 18
-60 26 -71 12z"/>
<path d="M1704 5075 c-29 -13 -32 -19 -38 -74 -9 -82 2 -160 25 -174 11 -7 19
-19 19 -28 0 -9 18 -29 41 -45 47 -32 68 -26 81 22 9 36 2 61 -28 97 -21 25
-24 39 -24 111 0 106 -11 119 -76 91z"/>
<path d="M2032 4078 c-25 -25 -13 -64 35 -114 23 -24 72 -54 87 -54 2 0 9 14
16 30 11 28 10 33 -9 54 -11 12 -21 30 -21 39 0 43 -78 75 -108 45z"/>
<path d="M1552 4018 c-17 -17 -15 -53 4 -68 8 -8 21 -27 29 -44 21 -51 67 -95
100 -98 40 -4 43 20 11 87 -25 54 -98 135 -120 135 -7 0 -17 -5 -24 -12z"/>
<path d="M2317 3365 c-26 -26 -38 -9 121 -173 54 -56 64 -62 82 -52 30 16 41
53 28 92 -32 95 -182 182 -231 133z"/>
<path d="M3141 3271 c-18 -11 -3 -56 34 -105 19 -25 35 -35 61 -38 77 -9 62
74 -23 130 -37 24 -51 26 -72 13z"/>
<path d="M3853 2470 c-13 -5 -23 -13 -22 -17 0 -4 43 -39 96 -76 100 -71 127
-78 139 -33 8 33 -26 88 -61 99 -17 5 -44 15 -62 23 -35 16 -58 17 -90 4z"/>
<path d="M10295 7723 c-11 -3 -29 -12 -40 -19 -11 -8 -32 -14 -47 -14 -40 0
-178 -111 -178 -143 0 -30 -13 -47 -35 -47 -16 0 -49 -24 -97 -70 -40 -39 -76
-74 -81 -78 -13 -12 -57 -83 -57 -91 0 -5 -13 -11 -30 -14 -32 -7 -200 -167
-200 -190 0 -7 -20 -30 -45 -50 -25 -21 -45 -43 -45 -50 0 -7 -12 -20 -26 -30
-25 -19 -26 -18 -62 6 -20 13 -71 39 -112 57 -41 18 -93 41 -116 51 -23 10
-50 19 -60 19 -10 1 -37 9 -59 20 -33 16 -62 19 -175 20 -99 0 -142 -4 -163
-15 -15 -8 -45 -17 -65 -21 -34 -6 -93 -38 -132 -73 -27 -24 -151 -101 -163
-101 -16 0 -315 -145 -382 -185 -22 -13 -53 -30 -70 -38 -16 -8 -36 -21 -44
-30 -7 -10 -18 -17 -24 -17 -6 0 -27 -10 -46 -23 -20 -13 -56 -37 -81 -53
-114 -73 -204 -161 -216 -211 -4 -12 -10 -23 -14 -23 -4 0 -15 -17 -25 -37 -9
-21 -29 -60 -45 -88 -40 -72 -90 -170 -90 -179 0 -4 -8 -19 -19 -34 -10 -15
-35 -52 -54 -82 -66 -100 -99 -144 -179 -240 -44 -52 -100 -125 -124 -162 -24
-37 -48 -69 -53 -72 -5 -3 -12 -18 -16 -33 -3 -16 -13 -35 -21 -44 -8 -9 -18
-54 -23 -110 -5 -52 -12 -101 -16 -110 -12 -31 -11 -174 2 -213 17 -51 17
-160 -1 -194 -8 -16 -20 -57 -26 -92 -6 -36 -15 -69 -20 -75 -4 -5 -13 -28
-20 -50 -24 -74 -167 -242 -273 -321 -40 -29 -80 -60 -89 -68 -10 -9 -20 -16
-23 -16 -3 0 -33 -19 -67 -42 -63 -43 -77 -52 -165 -100 -84 -45 -86 -85 -10
-166 144 -153 214 -214 337 -296 47 -31 91 -61 98 -67 7 -5 27 -17 45 -25 17
-8 39 -19 47 -24 46 -29 290 -160 298 -160 6 0 12 -4 14 -9 2 -5 62 -39 133
-77 72 -37 166 -87 210 -110 44 -24 91 -48 105 -54 14 -6 41 -19 60 -29 19
-10 52 -22 73 -25 48 -9 68 -40 67 -103 0 -26 2 -66 6 -88 7 -50 -9 -95 -34
-95 -10 0 -27 -9 -37 -20 -10 -11 -27 -20 -37 -20 -10 0 -38 -18 -61 -39 l-42
-40 2 -108 c2 -86 6 -113 21 -133 10 -14 22 -37 25 -51 4 -14 16 -36 27 -49
11 -13 20 -28 20 -35 0 -7 14 -42 30 -78 23 -51 36 -68 55 -73 16 -4 33 -21
45 -45 11 -20 24 -40 29 -43 5 -4 12 -25 16 -49 4 -23 16 -53 26 -66 11 -13
19 -30 19 -37 0 -8 9 -19 20 -26 11 -7 20 -17 20 -21 0 -20 43 -67 61 -67 12
0 23 -10 30 -27 5 -16 15 -32 22 -38 7 -5 30 -34 51 -63 21 -28 42 -52 47 -52
5 0 9 -6 9 -14 0 -8 8 -21 19 -28 10 -7 22 -24 26 -38 11 -37 25 -50 51 -50
13 0 31 -8 41 -18 22 -22 99 -72 111 -72 5 0 21 -9 34 -20 14 -10 45 -22 69
-26 48 -8 99 -39 131 -80 26 -32 75 -54 121 -54 19 0 46 -9 60 -20 14 -11 39
-23 56 -26 16 -4 32 -12 35 -19 2 -7 28 -18 56 -24 28 -6 63 -17 78 -25 15 -8
44 -17 65 -21 20 -4 37 -10 37 -14 0 -3 12 -19 25 -34 18 -20 40 -30 82 -38
32 -6 63 -14 68 -18 38 -28 247 -55 381 -48 111 5 312 37 392 62 36 11 61 27
80 51 l27 34 90 1 c120 0 360 47 398 77 7 5 42 13 80 17 38 4 74 13 82 22 9 8
39 18 68 23 62 9 114 34 122 59 6 19 52 56 102 82 22 11 72 19 155 24 68 3
139 11 158 16 40 10 150 107 150 132 0 25 57 78 96 88 19 6 34 14 34 18 0 8
45 55 85 89 8 7 15 22 15 32 0 11 8 29 18 40 38 44 77 80 88 80 19 0 114 112
114 135 0 11 16 39 36 61 20 21 40 49 45 62 5 12 21 27 36 33 41 15 63 39 63
67 0 14 6 33 13 41 8 9 20 32 27 51 7 19 19 42 26 50 7 8 16 28 20 45 4 16 13
36 20 43 7 7 16 34 19 60 4 26 14 58 23 72 11 17 18 60 22 142 5 96 10 121 26
139 13 15 21 41 24 87 l5 67 41 7 c23 3 59 16 80 27 21 12 50 21 63 21 58 0
185 119 204 189 9 33 22 51 49 70 39 28 48 46 48 103 0 21 8 57 18 80 23 58
25 349 2 388 -9 15 -17 64 -20 127 -5 88 -8 105 -28 126 -13 13 -25 42 -28 63
-3 21 -12 59 -20 84 -8 25 -19 64 -24 88 -6 23 -15 42 -20 42 -5 0 -12 26 -16
58 -4 31 -15 68 -25 81 -11 13 -19 31 -19 41 0 10 -9 29 -20 42 -10 14 -24 45
-29 69 -10 43 -40 79 -67 79 -8 0 -14 3 -14 8 0 4 -10 19 -23 34 -40 49 -60
81 -86 132 -28 58 -82 116 -107 116 -22 0 -123 106 -141 148 -7 17 -18 32 -23
32 -5 0 -20 11 -34 25 -14 14 -34 25 -44 25 -30 0 -150 111 -176 162 -6 12
-33 31 -61 43 -70 29 -195 161 -195 207 0 8 -18 28 -41 43 -22 16 -47 42 -55
59 -8 17 -21 42 -29 56 -8 14 -15 39 -15 55 0 17 -7 41 -16 53 -9 13 -20 48
-24 80 -5 31 -16 89 -24 127 -8 39 -20 169 -26 290 -11 228 -24 295 -59 315
-14 7 -19 26 -24 78 -3 41 -14 85 -26 108 -12 21 -21 44 -21 50 0 6 -9 19 -20
29 -11 10 -20 23 -20 29 0 6 -8 23 -17 36 -10 14 -23 40 -28 60 -7 24 -29 49
-70 82 -53 43 -62 55 -78 111 -10 34 -22 87 -26 117 -4 34 -15 67 -29 84 -12
16 -22 34 -22 40 0 21 -48 106 -77 134 -16 16 -40 33 -53 37 -14 4 -36 16 -49
26 -13 11 -33 19 -45 19 -12 0 -33 8 -46 18 -20 14 -49 17 -145 19 -66 1 -129
-1 -140 -4z m300 -151 c20 -5 37 -20 51 -46 12 -21 36 -47 53 -58 89 -57 130
-304 64 -380 -9 -9 -18 -38 -21 -63 -4 -39 -10 -50 -38 -68 -20 -13 -40 -39
-50 -62 -8 -22 -22 -47 -29 -55 -7 -8 -17 -33 -21 -55 -4 -21 -22 -66 -40
-100 -18 -33 -47 -90 -65 -127 -18 -38 -41 -70 -51 -74 -10 -3 -18 -9 -18 -14
0 -22 -97 -103 -163 -136 -39 -20 -80 -43 -90 -52 -14 -13 -45 -16 -156 -16
l-138 0 -32 37 c-25 28 -44 38 -88 47 -31 7 -71 22 -87 33 -48 34 -126 110
-126 124 0 7 -15 30 -34 50 -38 43 -56 96 -56 168 0 73 8 92 49 117 20 12 50
37 66 56 17 19 40 44 53 55 12 11 22 25 22 30 0 25 58 96 88 107 37 13 179
149 208 198 10 19 35 42 54 52 48 25 159 135 175 174 18 43 30 51 95 65 130
30 176 29 325 -7z m327 -570 c6 -20 20 -40 39 -51 75 -46 132 -202 144 -392 4
-63 11 -121 16 -130 5 -9 13 -103 19 -208 7 -126 15 -204 25 -228 8 -19 15
-48 15 -63 0 -15 13 -44 30 -65 20 -25 30 -49 30 -71 0 -18 4 -35 9 -38 14 -9
30 -62 22 -75 -12 -19 -55 3 -109 56 -27 27 -52 58 -56 70 -9 30 -83 89 -121
99 -17 4 -38 14 -47 23 -10 9 -28 24 -40 33 -13 10 -35 27 -51 39 -15 11 -35
35 -44 52 -20 41 -59 77 -82 77 -17 0 -57 26 -121 79 -19 16 -46 38 -59 49
-35 27 -33 78 4 133 43 65 72 122 79 157 4 17 13 35 20 41 7 6 19 28 26 50 7
22 23 45 37 52 27 15 53 57 53 88 0 11 11 37 25 57 14 20 25 42 25 49 0 7 7
18 15 25 8 7 20 39 27 72 11 54 14 59 37 56 19 -2 27 -11 33 -36z m-2011 -28
c8 -8 38 -18 66 -23 28 -6 65 -19 83 -30 31 -18 32 -22 35 -94 2 -45 9 -83 18
-98 8 -13 18 -54 22 -90 6 -57 11 -70 42 -99 27 -27 38 -32 51 -23 25 15 29
142 6 186 -9 18 -18 60 -21 95 -6 60 -5 62 18 61 13 0 39 -10 58 -23 33 -21
35 -25 36 -87 0 -35 6 -77 12 -94 6 -16 17 -59 23 -95 6 -36 18 -72 25 -80 7
-8 16 -25 19 -37 4 -11 13 -24 21 -27 8 -3 15 -11 15 -19 0 -13 52 -57 67 -57
5 0 25 -15 46 -33 37 -32 37 -33 38 -107 1 -41 7 -86 14 -100 8 -15 14 -75 16
-150 l4 -125 -40 -7 c-109 -19 -189 -3 -200 39 -3 15 -15 38 -26 51 -10 14
-19 30 -19 37 0 6 -10 21 -22 33 -13 12 -34 35 -48 52 -14 17 -41 48 -61 69
l-36 38 -7 144 c-6 115 -12 152 -28 184 -11 22 -24 47 -28 55 -10 22 -58 24
-81 4 -22 -20 -24 -42 -5 -69 7 -11 16 -58 20 -105 4 -47 9 -93 12 -103 8 -27
-22 -31 -67 -8 -22 12 -53 20 -67 19 l-27 -3 3 68 c2 38 10 80 18 95 17 33 18
94 2 110 -29 29 -98 4 -98 -35 0 -9 -7 -21 -16 -27 -11 -8 -17 -37 -21 -104
l-6 -92 -44 0 c-30 0 -45 5 -50 16 -3 8 -16 19 -29 24 -19 8 -22 16 -22 57 0
34 5 53 18 65 11 10 22 35 25 55 3 21 10 52 15 68 15 47 30 164 30 236 0 47 4
70 15 79 9 7 15 29 15 50 0 21 2 44 5 52 7 19 135 21 156 2z m-438 -224 c4
-33 14 -74 23 -91 14 -29 15 -78 4 -209 -1 -8 3 -57 9 -109 7 -73 14 -97 30
-113 12 -10 21 -23 21 -28 0 -6 7 -10 15 -10 9 0 18 -7 21 -15 3 -8 22 -19 42
-26 21 -6 43 -16 51 -22 7 -6 68 -14 136 -18 103 -5 128 -10 153 -28 17 -11
36 -21 43 -21 14 0 23 -7 98 -82 29 -29 57 -63 62 -75 5 -13 15 -23 24 -23 8
0 15 -9 15 -19 0 -11 11 -33 25 -49 14 -17 25 -34 25 -40 0 -5 13 -23 28 -40
27 -28 28 -34 21 -89 -4 -32 -8 -87 -8 -122 -1 -44 -6 -70 -17 -82 -9 -10 -19
-47 -24 -84 -4 -36 -15 -77 -24 -90 -9 -13 -19 -50 -22 -82 -4 -32 -15 -75
-25 -95 -22 -44 -25 -126 -6 -153 10 -12 21 -16 38 -12 43 11 59 30 65 82 4
28 13 57 20 66 7 8 18 45 23 81 5 36 16 79 25 96 9 18 19 60 23 94 3 38 14 73
25 87 14 19 18 41 18 112 0 101 5 119 32 119 32 0 220 -51 264 -71 22 -11 52
-19 66 -19 14 0 37 -9 51 -20 14 -11 27 -20 30 -20 3 0 19 -14 37 -30 l32 -30
-26 -21 c-14 -11 -26 -27 -26 -34 0 -8 -8 -22 -19 -32 -10 -10 -22 -32 -25
-50 -4 -17 -14 -34 -22 -37 -8 -3 -14 -12 -14 -21 0 -9 -11 -26 -24 -38 -32
-30 -40 -110 -11 -121 27 -10 81 21 96 56 7 18 21 40 31 50 10 10 18 24 18 32
0 8 7 16 14 19 8 3 20 25 26 49 12 42 35 78 51 78 4 0 20 -11 35 -25 15 -14
33 -25 40 -25 15 0 108 -90 117 -114 4 -9 13 -16 21 -16 8 0 17 -14 21 -32 7
-28 24 -68 54 -128 12 -23 76 -25 98 -2 43 45 75 36 122 -33 25 -37 31 -57 31
-98 0 -29 4 -69 9 -90 9 -37 16 -47 69 -101 12 -13 22 -28 22 -34 0 -6 13 -13
29 -17 16 -3 35 -13 42 -22 7 -8 22 -19 34 -24 11 -5 40 -25 65 -44 25 -19 52
-38 60 -42 8 -3 24 -16 36 -27 12 -12 33 -30 48 -41 46 -34 306 -298 306 -311
0 -3 16 -26 36 -50 39 -48 72 -56 108 -29 11 8 30 15 43 15 43 0 97 62 122
139 20 61 23 86 19 174 -4 85 -8 109 -28 142 -13 22 -32 46 -42 53 -10 7 -18
18 -18 24 0 6 -26 37 -58 68 -32 31 -62 64 -65 73 -4 10 -13 17 -22 17 -8 0
-20 11 -25 25 -5 14 -16 25 -25 25 -8 0 -15 7 -15 16 0 9 -9 18 -21 21 -18 5
-15 11 30 54 28 27 67 55 86 63 62 26 32 61 -51 60 -45 -1 -57 -6 -83 -32 -17
-17 -31 -37 -31 -45 0 -30 -14 -24 -51 20 -21 26 -45 51 -54 55 -8 5 -15 14
-15 21 0 7 -8 17 -19 24 -21 13 -18 63 4 63 8 0 17 10 21 23 3 12 15 30 25 39
10 10 21 35 25 55 3 21 15 52 25 69 15 25 17 40 11 70 -7 34 -12 39 -40 42
-27 3 -35 -2 -52 -30 -11 -18 -20 -43 -20 -54 0 -12 -9 -33 -20 -47 -11 -14
-20 -29 -20 -35 0 -5 -11 -22 -25 -38 -14 -16 -25 -35 -25 -41 0 -21 -25 -15
-49 11 l-22 23 31 6 c18 4 30 13 30 22 0 8 4 15 9 15 12 0 28 51 36 115 4 28
11 64 17 80 9 25 6 45 -14 105 -22 65 -29 75 -49 75 -34 0 -49 -38 -39 -100 8
-51 4 -96 -11 -106 -5 -3 -13 -28 -18 -56 -6 -27 -18 -66 -28 -86 -18 -37 -43
-50 -43 -22 0 8 -9 19 -20 25 -11 6 -20 17 -20 24 0 8 -10 20 -22 28 -20 13
-22 26 -27 133 -4 82 -10 120 -19 123 -7 2 -19 10 -27 19 -21 20 -71 33 -133
33 -53 0 -114 19 -126 39 -4 6 1 28 11 48 38 79 15 282 -36 320 -28 21 -43
-29 -51 -173 -4 -73 -11 -137 -15 -144 -9 -15 -76 -4 -90 14 -5 7 -27 18 -47
25 -20 7 -42 19 -48 27 -8 9 -33 14 -69 15 -31 0 -65 4 -75 8 -18 7 -18 8 -3
14 9 3 17 14 17 23 0 9 8 31 19 48 24 39 35 115 22 149 -13 35 -48 36 -61 3
-5 -13 -13 -27 -19 -31 -6 -3 -18 -30 -26 -60 -9 -29 -22 -56 -30 -59 -10 -3
-15 -20 -15 -46 l0 -40 -75 -2 c-41 -1 -85 -2 -97 -2 -22 -1 -23 4 -29 86 -3
52 -12 96 -21 110 -9 13 -19 47 -23 76 -7 52 -7 52 21 52 15 0 47 -9 71 -21
85 -41 477 -35 525 8 25 22 90 23 115 1 10 -9 31 -20 46 -23 16 -4 34 -16 40
-26 7 -11 15 -19 20 -19 10 0 77 -64 77 -74 0 -22 46 -65 77 -71 32 -6 46 -15
98 -65 12 -11 26 -20 33 -20 7 0 12 -4 12 -9 0 -5 15 -18 34 -29 18 -11 42
-37 52 -58 12 -24 27 -40 40 -42 12 -2 30 -12 40 -23 9 -10 23 -19 30 -19 7 0
15 -9 19 -19 3 -10 15 -21 25 -24 11 -3 20 -12 20 -20 0 -9 8 -18 18 -21 9 -3
23 -19 30 -34 7 -16 28 -37 47 -48 19 -10 35 -25 35 -33 0 -12 45 -68 120
-147 11 -12 20 -26 20 -32 0 -6 9 -16 20 -22 11 -6 20 -20 20 -31 0 -25 17
-59 30 -59 13 0 60 -45 60 -58 0 -6 9 -17 20 -25 13 -9 22 -31 27 -63 4 -30
13 -54 25 -62 10 -8 18 -25 18 -43 0 -17 9 -38 23 -51 l22 -23 -1 -390 c-1
-224 -6 -401 -12 -415 -6 -17 -6 -33 1 -48 12 -26 1 -43 -29 -43 -97 2 -234
22 -264 37 -32 17 -64 19 -412 18 -273 -1 -378 2 -378 10 0 7 6 20 14 31 29
43 32 118 20 427 -4 106 -11 174 -19 185 -19 25 -74 21 -98 -8 -17 -22 -18
-34 -13 -144 4 -66 6 -153 6 -193 -1 -40 5 -94 14 -120 8 -26 16 -85 18 -132
l3 -85 -140 -13 c-77 -7 -162 -19 -190 -26 -27 -8 -84 -24 -125 -35 -41 -12
-85 -21 -97 -21 -12 0 -49 -23 -83 -52 -53 -44 -65 -50 -81 -40 -10 7 -23 12
-28 12 -13 0 -63 -99 -56 -110 3 -5 -3 -30 -14 -57 -10 -26 -24 -75 -31 -108
-7 -33 -21 -69 -31 -80 -27 -31 -31 -65 -20 -149 12 -87 40 -149 75 -168 22
-12 84 -66 203 -175 25 -24 52 -43 58 -43 7 0 18 -7 25 -15 7 -8 30 -20 52
-26 22 -6 50 -19 61 -30 12 -11 35 -19 56 -19 22 0 50 -10 75 -27 l39 -28 407
2 407 3 12 -27 c9 -19 10 -59 6 -138 -8 -121 -12 -130 -80 -173 -54 -34 -103
-85 -110 -115 -9 -33 -143 -168 -175 -177 -14 -3 -32 -20 -41 -37 -15 -30 -17
-31 -40 -18 -59 33 -109 55 -128 55 -20 0 -55 14 -166 66 -28 13 -54 24 -59
24 -4 0 -17 12 -28 26 -15 19 -29 25 -52 23 -62 -4 -72 0 -84 35 -13 35 -33
46 -88 46 -17 0 -37 7 -44 15 -7 8 -31 20 -53 26 -23 6 -46 18 -53 27 -6 9
-33 18 -60 21 -34 4 -49 10 -49 21 0 21 52 15 140 -17 39 -13 86 -28 105 -33
19 -4 66 -24 103 -43 38 -20 83 -39 100 -42 18 -4 39 -13 47 -20 8 -7 34 -18
56 -24 23 -6 47 -18 54 -26 7 -8 17 -15 23 -15 5 0 33 -11 61 -24 71 -33 163
-51 181 -36 39 33 -11 89 -126 142 -42 20 -79 40 -83 46 -3 6 -23 16 -43 23
-21 7 -43 18 -51 25 -7 7 -29 16 -50 20 -20 4 -48 15 -61 25 -13 11 -30 19
-37 19 -7 0 -34 11 -60 25 -26 14 -53 25 -59 25 -7 0 -18 6 -24 14 -7 8 -28
17 -48 21 -20 3 -52 15 -72 26 -20 10 -43 19 -52 19 -9 0 -27 9 -41 19 -13 11
-38 23 -54 27 -16 4 -50 18 -75 31 -26 13 -52 23 -58 23 -6 0 -11 4 -11 8 0
11 -46 32 -69 32 -11 0 -21 6 -24 14 -3 8 -23 20 -44 26 -21 7 -45 18 -53 25
-8 7 -26 16 -40 20 -14 4 -35 16 -48 26 -13 10 -36 20 -52 24 -15 3 -31 13
-34 20 -3 8 -23 18 -46 21 -24 4 -40 12 -40 20 0 8 -12 17 -27 20 -16 4 -48
18 -72 31 -24 12 -51 23 -60 23 -9 0 -27 9 -41 20 -14 11 -35 20 -46 20 -12 0
-32 8 -45 19 -13 10 -38 22 -56 25 -17 4 -37 13 -43 21 -6 8 -26 17 -43 20
-18 4 -45 15 -62 25 -16 10 -48 22 -70 26 -22 4 -51 15 -64 25 -13 11 -35 19
-48 19 -14 0 -36 9 -50 20 -14 11 -33 20 -42 20 -9 0 -32 9 -52 19 -20 11 -53
23 -74 27 -21 4 -46 15 -56 25 -11 11 -30 19 -43 19 -13 0 -29 7 -36 15 -7 8
-31 20 -54 27 -22 6 -49 20 -59 30 -10 10 -28 18 -41 18 -13 0 -35 9 -49 21
-15 11 -43 23 -62 26 -19 3 -35 10 -35 15 0 5 -17 16 -37 25 -21 8 -45 21 -53
28 -8 7 -26 16 -40 20 -14 4 -32 13 -40 20 -8 7 -32 18 -52 24 -20 7 -42 19
-48 27 -7 7 -20 14 -29 14 -10 0 -32 11 -51 25 -19 14 -41 25 -50 25 -9 0 -25
9 -35 20 -10 11 -28 20 -40 20 -11 0 -36 11 -55 25 -19 14 -41 25 -51 25 -9 0
-22 6 -28 14 -6 8 -31 19 -55 25 -24 6 -48 17 -55 25 -6 8 -28 17 -48 21 -20
3 -52 15 -72 26 -20 10 -48 19 -63 19 -23 0 -28 4 -28 25 0 14 8 29 20 35 11
6 20 17 20 25 0 8 9 19 20 25 11 6 22 26 26 46 4 20 15 45 25 55 11 11 19 30
19 44 0 14 8 29 19 34 10 6 22 23 26 38 3 16 15 36 26 46 17 15 19 32 19 130
0 79 -5 119 -15 137 -8 14 -21 42 -30 62 -9 20 -23 39 -31 42 -8 3 -14 11 -14
19 0 7 -19 31 -43 53 -24 21 -46 47 -50 57 -3 9 -13 17 -21 17 -36 0 -32 244
5 316 10 21 19 48 19 60 0 11 9 31 20 44 11 13 23 34 26 47 4 13 15 28 25 34
11 5 19 16 19 24 0 7 9 17 20 20 11 3 20 11 20 17 0 17 92 121 192 219 48 48
88 94 88 102 0 8 7 17 15 21 8 3 18 23 21 46 4 22 10 40 14 40 11 0 30 57 30
87 0 13 9 31 20 40 11 10 20 23 20 29 0 6 23 25 50 42 28 17 50 37 50 45 0 8
9 22 20 32 14 13 20 31 20 62 0 31 6 48 20 60 11 10 20 24 20 32 0 7 10 24 23
36 12 13 37 43 56 69 18 25 38 46 45 46 6 0 17 9 23 19 7 11 26 22 43 26 17 4
34 13 37 20 2 8 18 17 34 20 17 4 35 15 42 26 6 10 22 19 34 19 12 0 34 11 50
24 15 13 43 27 61 31 18 4 36 13 39 21 3 8 15 14 28 14 12 0 33 8 46 19 13 10
38 21 55 25 18 4 40 16 50 27 9 10 28 19 41 19 12 0 32 9 42 19 18 18 49 31
62 25 3 -2 9 -31 12 -64z m3107 -1439 c0 -22 67 -89 118 -118 30 -17 59 -39
64 -47 5 -9 13 -16 18 -16 13 0 66 -57 93 -100 12 -20 41 -44 65 -56 57 -27
160 -129 183 -182 12 -29 29 -47 49 -55 28 -12 129 -130 130 -152 1 -31 80
-161 110 -182 24 -17 59 -86 60 -118 0 -12 9 -39 20 -60 11 -22 25 -74 30
-115 5 -41 16 -98 24 -126 20 -73 38 -234 43 -402 5 -150 -14 -311 -42 -362
-8 -14 -19 -37 -26 -52 -6 -16 -15 -28 -20 -28 -4 0 -13 -17 -20 -38 -13 -44
-44 -64 -124 -83 -27 -7 -61 -17 -75 -24 -45 -22 -151 -24 -1161 -27 l-996 -2
-86 42 c-47 23 -90 42 -94 42 -20 0 -115 80 -156 130 -61 76 -74 105 -81 180
-6 58 -3 76 29 170 20 57 50 122 66 145 17 22 39 54 49 72 24 40 108 84 205
106 39 9 160 21 270 27 110 6 227 18 261 26 86 21 591 15 714 -8 47 -9 130
-24 185 -34 203 -34 221 -39 271 -71 28 -18 55 -33 60 -33 5 0 25 -8 44 -19
19 -10 64 -23 100 -29 58 -11 66 -10 83 6 14 15 16 24 8 46 -19 50 -63 94 -99
101 -19 3 -39 11 -46 16 -25 21 -82 59 -102 68 -37 17 -47 60 -35 153 6 46 12
236 12 423 2 323 1 343 -20 400 -11 33 -32 69 -45 80 -13 11 -27 35 -31 52 -3
18 -11 35 -16 39 -5 3 -16 21 -24 40 -8 19 -21 42 -30 50 -8 9 -15 21 -15 28
0 7 -9 21 -20 31 -21 19 -28 75 -10 75 6 0 10 -4 10 -9z m-4641 -667 c32 -44
42 -136 24 -214 -8 -36 -23 -73 -34 -83 -10 -10 -19 -24 -19 -31 0 -7 -9 -21
-20 -31 -11 -10 -20 -26 -20 -37 0 -10 -9 -26 -20 -35 -11 -10 -23 -32 -26
-49 -4 -20 -13 -34 -25 -37 -10 -3 -19 -12 -19 -21 0 -9 -8 -16 -19 -16 -10 0
-29 -8 -42 -18 -29 -22 -115 -63 -184 -87 -147 -50 -286 -53 -177 -3 20 10 51
27 67 38 17 11 40 25 53 31 12 7 22 16 22 20 0 5 18 20 39 34 40 24 121 102
154 146 10 13 31 41 47 63 17 21 30 45 30 52 0 8 4 14 8 14 11 0 32 45 32 66
0 9 8 28 19 42 10 15 21 46 24 70 3 24 12 51 20 60 8 9 18 37 22 62 7 41 9 43
15 19 4 -15 17 -40 29 -55z m-65 -783 c3 -5 26 -14 51 -20 26 -6 63 -20 83
-31 20 -11 44 -20 52 -20 8 0 21 -9 28 -20 7 -11 19 -20 26 -20 8 0 18 -9 21
-20 3 -11 13 -20 21 -20 8 0 17 -7 20 -15 3 -8 29 -32 58 -52 28 -20 86 -72
128 -115 78 -78 109 -93 136 -66 17 17 15 77 -3 84 -8 4 -15 12 -15 19 0 17
37 8 69 -17 13 -10 32 -18 42 -18 10 0 26 -9 36 -19 10 -11 32 -23 48 -27 17
-4 41 -15 54 -26 13 -10 32 -18 42 -18 10 0 26 -9 36 -19 10 -11 32 -23 48
-27 17 -4 41 -15 54 -26 13 -10 31 -18 40 -18 9 0 32 -9 52 -19 20 -11 52 -23
72 -26 20 -4 41 -13 48 -21 6 -7 27 -16 48 -20 20 -4 46 -15 59 -25 12 -9 40
-20 62 -24 22 -4 40 -10 40 -14 0 -4 11 -14 25 -21 18 -9 25 -22 25 -42 0 -23
7 -32 35 -45 19 -9 35 -20 35 -24 0 -4 17 -13 37 -20 21 -7 58 -23 82 -36 24
-12 50 -23 58 -23 8 0 26 -9 40 -20 14 -11 36 -20 48 -20 12 0 28 -7 35 -15
17 -21 73 -19 93 3 21 23 72 18 102 -8 11 -10 35 -21 54 -25 18 -4 42 -16 52
-26 10 -10 27 -19 37 -19 10 0 27 -7 38 -15 10 -8 37 -20 59 -26 21 -6 50 -19
63 -30 14 -10 32 -19 40 -19 9 0 23 -6 31 -13 9 -8 32 -20 51 -27 19 -7 42
-19 50 -26 8 -7 29 -16 45 -20 17 -3 38 -13 47 -22 9 -8 32 -17 50 -21 26 -5
34 -12 36 -34 2 -17 -2 -27 -10 -28 -7 -1 -121 -2 -253 -3 -203 -1 -245 -4
-265 -17 -14 -9 -51 -19 -83 -23 -41 -5 -61 -13 -70 -27 -15 -24 -33 -24 -54
1 -10 11 -45 33 -79 50 -55 26 -62 33 -68 65 -4 20 -14 39 -22 42 -7 3 -14 14
-14 24 0 14 -7 19 -26 19 -25 0 -26 2 -20 44 6 36 3 50 -17 79 -25 37 -47 37
-50 -1 0 -12 -7 -24 -13 -26 -21 -8 -53 6 -59 25 -4 10 -11 19 -17 19 -5 0 -8
7 -4 15 3 8 1 15 -4 15 -6 0 -10 8 -10 18 1 16 1 16 11 0 11 -19 54 -24 64 -8
9 15 -25 60 -53 67 -17 4 -27 1 -34 -11 -5 -9 -14 -16 -19 -16 -11 0 -69 54
-69 65 0 11 -58 65 -69 65 -5 0 -19 20 -30 45 -15 33 -27 46 -48 51 -15 4 -35
13 -44 20 -11 10 -56 14 -165 16 -123 1 -155 -1 -183 -15 -19 -9 -44 -17 -57
-17 -33 0 -54 -10 -54 -26 0 -8 -7 -17 -15 -20 -8 -4 -15 -11 -15 -18 -1 -14
-67 -86 -80 -86 -6 0 -10 -6 -10 -14 0 -20 -17 -29 -35 -18 -14 7 -13 11 5 27
11 10 20 23 20 29 0 22 -51 65 -85 72 -19 3 -39 12 -45 20 -7 7 -28 18 -48 25
-20 7 -43 20 -50 31 -7 10 -19 18 -27 18 -7 0 -22 17 -32 37 -14 26 -30 41
-51 47 -41 11 -62 -5 -62 -50 0 -19 -2 -34 -5 -34 -2 0 -21 11 -41 25 -20 14
-42 25 -49 25 -7 0 -15 7 -18 14 -3 8 -22 18 -42 22 -20 3 -39 12 -42 20 -2 7
-21 18 -41 25 -21 6 -44 18 -53 25 -8 8 -29 17 -47 20 -17 3 -33 12 -36 19 -2
7 -22 19 -43 25 -21 7 -41 18 -45 25 -4 7 -19 16 -34 19 -14 4 -35 16 -47 26
-11 11 -27 20 -35 20 -8 0 -25 9 -39 20 -14 11 -32 20 -39 20 -26 0 -25 20 3
45 15 13 32 25 36 25 10 0 67 56 67 65 0 4 26 31 58 61 31 29 66 62 77 72 49
46 96 65 109 43z m1271 -849 c23 -13 49 -39 60 -60 11 -20 34 -43 50 -51 35
-17 51 -34 71 -78 22 -50 134 -156 189 -179 22 -9 37 -23 41 -39 6 -24 158
-172 195 -189 20 -9 26 -45 10 -62 -22 -22 -52 -140 -54 -213 -2 -88 22 -154
70 -190 46 -34 93 -85 93 -101 0 -28 107 -118 163 -136 28 -9 56 -23 60 -30 4
-8 14 -14 22 -14 8 0 37 -23 66 -52 29 -29 73 -60 103 -73 53 -22 96 -45 151
-81 18 -12 44 -25 56 -29 13 -4 43 -15 66 -26 24 -10 46 -19 50 -19 5 0 18
-15 30 -34 17 -27 35 -38 90 -56 37 -12 91 -34 118 -48 l50 -27 382 -5 c210
-3 384 -8 387 -11 3 -3 -12 -11 -33 -18 -22 -6 -51 -26 -66 -43 -22 -26 -37
-33 -88 -40 -33 -4 -71 -15 -83 -23 -12 -8 -83 -26 -159 -40 -207 -40 -283
-33 -530 46 -33 11 -68 19 -77 19 -10 0 -24 11 -33 23 -17 26 -55 47 -85 47
-10 0 -58 13 -107 29 -48 16 -107 32 -131 35 -24 4 -53 13 -65 20 -12 8 -38
17 -57 21 -19 4 -44 13 -55 20 -11 7 -36 16 -55 20 -57 10 -88 26 -104 50 -19
30 -98 73 -155 86 -25 6 -52 16 -61 24 -8 7 -31 20 -50 29 -19 9 -57 29 -85
45 -27 16 -58 30 -67 30 -10 1 -29 14 -43 29 -14 16 -47 52 -73 79 -26 28 -60
67 -76 87 -16 20 -35 36 -42 36 -7 0 -27 24 -46 54 -18 30 -57 81 -87 115 -29
33 -61 75 -70 93 -9 18 -29 39 -45 47 l-28 13 58 30 c64 32 118 78 140 120 19
36 18 135 -2 173 -9 17 -20 55 -25 85 -18 110 -84 233 -143 268 -20 12 -36 27
-36 35 0 19 -59 72 -97 87 -33 12 -134 10 -180 -5 -15 -5 -23 -3 -23 4 0 6 9
11 21 11 12 0 23 8 26 19 4 14 19 22 61 29 32 6 71 18 87 27 46 25 196 17 250
-13z m-246 -174 c5 -13 46 -60 90 -106 57 -58 83 -92 88 -115 3 -17 12 -42 19
-54 22 -35 46 -163 39 -208 -9 -64 -31 -84 -108 -100 -42 -9 -76 -11 -90 -6
-27 11 -59 54 -75 99 -6 19 -36 58 -67 88 -30 30 -55 60 -55 67 0 7 -9 30 -19
50 -12 23 -22 71 -26 123 -7 78 -6 87 13 107 11 12 25 34 31 50 10 26 13 27
81 27 64 0 71 -2 79 -22z m4169 -118 c2 -95 -2 -133 -23 -224 -14 -61 -30
-115 -35 -121 -5 -6 -14 -33 -20 -60 -9 -39 -22 -60 -70 -107 -38 -38 -61 -70
-65 -91 -6 -29 -40 -89 -72 -127 -46 -55 -71 -79 -89 -89 -12 -6 -36 -35 -53
-65 -17 -30 -77 -102 -133 -159 -57 -58 -117 -120 -135 -138 -47 -50 -212
-203 -230 -213 -9 -5 -268 -3 -617 4 l-601 12 -30 32 c-33 36 -92 70 -142 80
-17 4 -71 27 -120 52 -48 24 -100 44 -114 44 -27 0 -109 53 -109 70 0 5 -21
23 -47 41 -27 18 -50 34 -52 36 -8 6 35 46 70 64 41 21 89 73 89 96 0 9 16 35
35 59 19 23 35 45 35 49 0 4 -16 30 -35 59 -19 29 -35 62 -35 73 0 48 -138
187 -204 207 -23 7 -55 27 -73 44 -29 29 -37 32 -95 32 -109 0 -148 23 -60 35
26 4 72 13 103 21 128 32 410 9 509 -41 25 -12 69 -30 98 -40 29 -9 57 -25 62
-35 12 -22 89 -63 158 -84 55 -17 107 -38 176 -72 28 -13 57 -24 67 -24 31 0
118 -42 124 -61 8 -26 63 -57 114 -65 24 -4 52 -15 62 -25 26 -26 49 -113 49
-188 0 -91 14 -135 47 -150 42 -19 63 12 64 98 1 119 12 166 50 210 60 71 79
99 79 119 0 24 125 155 185 193 25 16 45 35 45 42 0 8 27 44 61 81 45 49 65
80 76 119 20 70 31 148 32 229 2 109 -46 99 440 96 l426 -3 3 -115z m-4464
-267 c57 -61 106 -129 106 -146 0 -20 36 -57 93 -97 50 -35 56 -70 21 -121
-29 -42 -53 -52 -124 -53 -42 -1 -46 1 -66 39 -13 22 -23 49 -23 59 -1 11 -20
37 -43 59 -50 48 -87 129 -95 209 -5 54 -4 58 18 67 46 19 86 13 113 -16z
m1623 -225 c96 -47 126 -74 158 -142 41 -86 39 -138 -8 -208 -31 -48 -45 -59
-80 -69 -23 -6 -50 -17 -61 -25 -49 -34 -103 -6 -251 130 -120 111 -158 189
-122 253 20 35 86 82 126 89 20 3 41 7 46 10 35 13 126 -5 192 -38z m-1252
-233 c31 -30 63 -55 71 -55 8 0 20 -11 26 -25 6 -14 15 -25 20 -25 5 0 17 -19
27 -42 10 -24 33 -58 50 -77 18 -19 36 -42 42 -52 5 -11 24 -26 42 -35 41 -21
74 -60 87 -104 11 -40 100 -112 160 -131 69 -21 146 -64 180 -101 28 -30 52
-42 124 -63 49 -15 99 -33 111 -41 12 -8 48 -19 80 -25 32 -6 68 -17 79 -24
12 -7 36 -16 54 -20 18 -4 67 -24 108 -46 88 -46 135 -65 224 -87 36 -10 70
-20 75 -23 6 -4 37 -12 70 -19 33 -6 65 -17 70 -24 6 -7 18 -17 28 -23 16 -8
9 -12 -39 -21 -32 -7 -68 -22 -80 -33 -20 -19 -36 -21 -131 -22 -97 -2 -111 0
-138 21 -16 12 -57 27 -90 33 -33 6 -64 14 -70 19 -11 8 -172 60 -188 60 -6 0
-39 14 -74 30 -34 17 -73 30 -86 30 -33 0 -113 44 -142 79 -14 16 -36 33 -48
37 -12 3 -35 12 -52 19 -16 7 -53 21 -81 29 -28 9 -68 25 -90 36 -21 11 -43
20 -50 20 -6 0 -17 7 -24 15 -7 8 -30 18 -52 21 -31 5 -48 17 -81 56 -46 56
-128 118 -155 118 -22 0 -65 54 -81 101 -13 40 -125 179 -145 179 -33 0 -93
128 -75 161 9 18 20 23 75 34 17 3 48 21 69 40 21 19 39 35 40 35 2 0 29 -25
60 -55z"/>
<path d="M10070 7144 c-14 -3 -64 -14 -111 -26 -89 -21 -127 -46 -172 -112
-10 -14 -32 -32 -50 -40 -18 -7 -51 -35 -75 -62 -23 -27 -50 -57 -60 -67 -12
-13 -17 -34 -16 -75 0 -54 1 -57 54 -103 40 -37 65 -51 106 -59 29 -6 58 -18
64 -26 7 -7 19 -14 27 -14 7 0 33 -20 57 -44 30 -32 54 -47 82 -52 21 -3 46
-12 54 -19 22 -18 109 -55 131 -55 10 0 21 5 24 10 3 6 17 10 30 10 31 0 93
55 101 89 6 26 24 69 67 159 18 39 22 64 22 147 0 84 -4 107 -23 143 -12 23
-22 51 -22 61 0 26 -56 87 -100 110 -37 19 -143 33 -190 25z m123 -90 c43 -6
49 -10 76 -59 16 -29 33 -69 36 -89 4 -20 11 -39 16 -42 26 -16 -10 -211 -48
-255 -7 -8 -16 -29 -19 -47 -7 -36 -66 -82 -105 -82 -28 0 -78 34 -110 73 -11
15 -30 27 -43 27 -12 0 -46 13 -76 29 -89 48 -163 82 -193 88 -15 3 -37 19
-48 34 l-20 29 23 43 c13 24 39 51 60 62 57 32 157 117 175 149 18 32 172 54
276 40z"/>
<path d="M9374 6235 c-4 -16 0 -35 11 -51 9 -15 18 -52 20 -86 4 -67 13 -78
62 -78 44 0 56 26 51 110 -3 58 -8 71 -33 99 -23 24 -38 31 -67 31 -32 0 -39
-4 -44 -25z"/>
<path d="M9650 5357 c-17 -37 -30 -80 -30 -103 0 -27 -6 -45 -20 -57 -11 -9
-20 -29 -20 -44 0 -47 -12 -55 -45 -33 -17 11 -38 20 -47 20 -22 0 -73 -77
-82 -125 -4 -22 -16 -49 -26 -62 -10 -13 -21 -47 -25 -75 -4 -29 -16 -64 -26
-78 -23 -31 -16 -85 12 -101 11 -5 19 -21 19 -35 0 -39 17 -62 50 -69 39 -8
57 6 66 52 4 19 13 37 20 40 7 3 16 21 20 41 4 21 15 47 24 59 10 13 21 43 24
67 4 24 13 47 21 50 8 3 17 21 21 41 3 20 12 39 19 41 7 3 18 25 24 48 6 24
17 49 25 55 8 7 18 32 22 56 3 24 15 52 25 61 13 12 19 31 19 64 0 25 7 55 15
66 33 43 9 84 -49 84 -22 0 -31 -10 -56 -63z"/>
<path d="M7608 5167 c-16 -13 -28 -28 -28 -35 0 -6 -9 -16 -20 -22 -11 -6 -20
-16 -20 -21 0 -6 -11 -24 -25 -41 -14 -16 -25 -38 -25 -48 0 -11 -8 -24 -19
-29 -10 -6 -22 -27 -25 -46 -4 -20 -16 -45 -27 -56 -10 -10 -19 -31 -19 -46 0
-15 -9 -36 -20 -48 -13 -14 -20 -37 -21 -71 -2 -60 4 -74 35 -74 28 0 73 55
82 99 4 16 12 32 19 35 7 2 16 23 20 44 3 22 15 48 26 58 10 9 19 27 19 40 0
13 9 31 19 41 11 10 22 30 26 44 4 15 26 46 51 70 32 33 44 52 44 75 0 56 -43
71 -92 31z"/>
<path d="M9994 5102 c-29 -18 -43 -69 -35 -120 9 -59 25 -82 55 -82 39 0 63
26 69 74 7 51 -2 85 -33 116 -21 21 -37 25 -56 12z"/>
<path d="M8619 4993 c-24 -30 -57 -105 -64 -150 -3 -23 -13 -44 -20 -47 -8 -3
-17 -21 -21 -41 -3 -19 -15 -40 -25 -46 -11 -5 -19 -16 -19 -23 0 -7 -11 -26
-25 -42 -14 -16 -25 -34 -25 -41 0 -7 -9 -17 -20 -23 -11 -6 -20 -18 -20 -27
0 -9 -10 -26 -22 -39 -38 -37 -68 -81 -68 -97 0 -8 -7 -17 -15 -20 -8 -4 -21
-21 -28 -39 -8 -18 -21 -39 -30 -47 -10 -7 -17 -21 -17 -31 0 -10 -7 -23 -15
-30 -8 -7 -20 -31 -26 -54 -6 -22 -18 -49 -27 -59 -11 -12 -18 -45 -22 -105
-3 -48 -9 -93 -14 -100 -11 -18 21 -52 49 -52 24 0 45 18 45 39 0 8 7 22 16
32 10 11 18 44 22 86 3 41 12 78 23 93 9 14 20 42 24 63 3 20 10 37 16 37 5 0
16 15 24 33 8 19 21 39 29 47 9 7 16 18 16 25 0 12 20 40 62 86 9 10 24 32 33
48 8 17 20 31 25 31 6 0 10 6 10 14 0 8 9 25 20 38 27 31 62 87 77 121 7 15
17 27 22 27 5 0 14 20 20 44 6 24 17 49 25 55 8 7 17 35 21 64 4 29 11 57 16
63 13 16 -5 60 -30 73 -25 14 -25 14 -42 -6z"/>
<path d="M8977 4876 c-9 -9 -16 -48 -20 -115 -3 -56 -13 -113 -20 -128 -8 -15
-18 -64 -22 -108 -5 -49 -13 -84 -22 -90 -7 -5 -18 -36 -23 -69 -5 -32 -16
-66 -23 -75 -8 -9 -18 -38 -22 -66 -4 -27 -13 -54 -21 -60 -7 -5 -18 -34 -24
-63 -5 -29 -14 -62 -21 -73 -8 -16 -7 -26 5 -44 27 -41 50 -48 73 -22 35 38
51 70 58 116 4 25 13 51 20 57 7 7 18 41 24 75 6 34 17 69 25 78 7 9 17 41 21
71 4 30 14 59 21 65 8 5 18 37 23 70 5 33 16 78 25 100 19 50 22 265 4 283
-16 16 -63 15 -81 -2z"/>
<path d="M10203 4860 c-36 -15 -44 -42 -37 -137 10 -159 50 -242 94 -197 14
15 19 38 21 109 4 160 1 193 -21 215 -22 22 -25 23 -57 10z"/>
<path d="M7780 4648 c-29 -35 -59 -89 -65 -119 -4 -19 -16 -40 -26 -47 -11 -7
-19 -19 -19 -27 0 -7 -11 -27 -25 -43 -14 -17 -25 -33 -25 -38 0 -7 -12 -21
-56 -67 -25 -25 -50 -98 -41 -120 12 -32 47 -27 85 12 55 57 92 104 92 118 0
7 7 13 15 13 8 0 15 4 15 9 0 4 11 24 24 44 13 19 27 45 31 57 4 12 16 31 26
41 10 10 19 30 19 43 0 13 7 29 15 36 21 17 20 86 -1 94 -25 10 -52 7 -64 -6z"/>
<path d="M9787 4630 c-28 -29 -28 -33 -28 -143 0 -114 5 -142 28 -165 7 -7 13
-19 13 -26 0 -7 9 -21 19 -30 18 -17 22 -17 54 -1 45 21 53 51 24 90 -20 28
-22 41 -22 165 l0 135 -30 2 c-22 2 -37 -5 -58 -27z"/>
<path d="M8018 4583 c-17 -3 -30 -12 -34 -26 -3 -12 -14 -31 -24 -42 -10 -11
-21 -31 -25 -43 -4 -13 -16 -33 -26 -43 -10 -10 -19 -28 -19 -39 0 -10 -8 -24
-19 -29 -10 -6 -22 -26 -25 -46 -4 -19 -15 -39 -26 -45 -11 -6 -20 -18 -20
-28 0 -9 -8 -22 -19 -29 -20 -13 -35 -70 -25 -97 4 -9 17 -16 33 -16 51 0 70
11 82 49 7 20 20 42 31 49 10 7 18 21 18 31 0 10 9 26 20 36 11 10 20 25 20
33 0 8 11 27 25 44 14 16 25 38 25 48 0 11 7 23 15 27 19 11 65 102 65 129 0
22 -18 45 -34 43 -6 -1 -23 -4 -38 -6z"/>
<path d="M8960 3863 c-26 -10 -50 -35 -50 -54 0 -10 -9 -23 -20 -29 -11 -6
-20 -18 -20 -27 0 -9 -10 -33 -23 -52 -41 -65 -47 -76 -63 -110 -8 -19 -22
-40 -30 -48 -8 -8 -14 -32 -14 -53 0 -35 2 -38 34 -44 45 -9 62 0 77 37 7 18
18 37 25 42 6 6 17 27 24 48 6 20 15 37 20 37 5 0 14 15 20 34 6 19 17 40 25
46 7 6 17 24 20 40 3 16 12 31 20 33 19 8 28 62 15 86 -10 21 -30 25 -60 14z"/>
<path d="M9269 3679 c-27 -29 -49 -58 -49 -64 0 -5 -9 -16 -20 -23 -11 -7 -20
-17 -20 -23 0 -6 -11 -24 -25 -41 -14 -16 -25 -36 -25 -43 0 -8 -6 -18 -12
-22 -7 -4 -21 -24 -31 -43 -10 -19 -24 -46 -32 -60 -26 -44 -13 -120 20 -120
30 0 75 36 84 67 5 18 19 45 30 59 12 15 21 37 21 50 0 13 6 24 13 25 14 0 77
92 77 114 0 8 7 15 15 15 9 0 20 11 24 24 5 13 17 26 26 30 12 4 15 17 13 53
-3 45 -5 48 -32 51 -23 3 -37 -6 -77 -49z"/>
<path d="M9435 3489 c-19 -17 -35 -37 -35 -45 0 -8 -7 -17 -15 -21 -9 -3 -22
-20 -31 -37 -8 -17 -26 -49 -39 -71 -14 -22 -32 -56 -41 -75 -9 -19 -23 -39
-31 -45 -23 -17 -23 -114 -1 -129 14 -8 23 -8 38 2 28 17 29 17 32 -30 3 -42
4 -43 38 -43 31 0 35 3 38 27 4 32 -13 68 -33 68 -7 0 -17 5 -20 10 -8 13 13
80 25 80 5 0 14 16 21 37 6 20 25 54 41 77 16 23 36 52 46 66 9 14 23 30 31
36 7 6 19 27 26 47 11 32 10 38 -7 57 -26 27 -41 25 -83 -11z"/>
<path d="M9506 3158 c-22 -30 -20 -84 2 -106 10 -10 21 -26 25 -35 17 -44 114
-23 109 23 -1 13 -9 31 -16 39 -7 9 -17 29 -20 46 -4 16 -12 36 -18 42 -17 21
-65 16 -82 -9z"/>
<path d="M10017 3720 c-14 -11 -45 -28 -68 -39 -70 -30 -85 -56 -115 -199 -19
-90 -18 -111 7 -157 12 -22 32 -59 43 -82 24 -46 141 -152 218 -196 57 -33
124 -35 250 -7 154 34 225 87 282 210 28 60 34 145 15 212 -12 46 -109 153
-145 162 -14 4 -48 22 -76 41 -27 19 -69 40 -91 47 -23 6 -46 15 -51 20 -6 4
-62 8 -127 8 -101 0 -120 -3 -142 -20z m265 -71 c9 -5 26 -9 37 -9 54 0 217
-122 241 -180 8 -19 11 -59 8 -110 -5 -90 -32 -142 -90 -172 -163 -83 -251
-97 -337 -55 -131 66 -157 90 -211 198 -19 37 -20 42 -5 105 8 36 15 74 15 85
0 11 18 42 41 69 39 47 85 69 169 83 32 6 110 -3 132 -14z"/>
<path d="M11202 3607 c-7 -8 -15 -29 -18 -48 -4 -19 -13 -41 -20 -50 -8 -8
-17 -31 -20 -50 -4 -19 -15 -50 -26 -69 -21 -40 -25 -139 -6 -158 20 -20 41
-15 123 31 49 27 63 70 64 197 1 102 -18 153 -60 158 -14 2 -31 -3 -37 -11z"/>
<path d="M10056 1850 c-57 -79 -61 -93 -48 -148 6 -26 14 -64 18 -84 3 -21 13
-43 21 -50 13 -10 19 -8 34 12 11 14 23 30 27 35 34 44 73 132 77 177 8 71 -9
102 -56 106 -34 3 -39 -1 -73 -48z"/>
</g>
</svg>
